<svg xmlns="http://www.w3.org/2000/svg" xmlns:xlink="http://www.w3.org/1999/xlink" viewBox="0 0 2846.74 2912.26"><defs><style>.cls-1{isolation:isolate;}.cls-2{fill:#f4f7fa;}.cls-3{fill:#c9ced6;}.cls-26,.cls-4{fill:#d8dee8;}.cls-5{fill:#97a6b7;}.cls-6{fill:url(#linear-gradient);}.cls-7{fill:url(#linear-gradient-2);}.cls-8{fill:url(#linear-gradient-3);}.cls-9{fill:url(#linear-gradient-4);}.cls-10,.cls-12,.cls-20,.cls-41{fill:#fff;}.cls-11{fill:url(#linear-gradient-5);}.cls-12{opacity:0.1;}.cls-12,.cls-20,.cls-41{mix-blend-mode:soft-light;}.cls-13{fill:url(#linear-gradient-6);}.cls-14{fill:url(#linear-gradient-7);}.cls-15{fill:url(#linear-gradient-8);}.cls-16{fill:url(#linear-gradient-9);}.cls-17{fill:url(#linear-gradient-10);}.cls-18{fill:url(#linear-gradient-11);}.cls-19{fill:url(#linear-gradient-12);}.cls-20{opacity:0.5;}.cls-21{fill:url(#linear-gradient-13);}.cls-22{fill:url(#linear-gradient-14);}.cls-23{fill:url(#linear-gradient-15);}.cls-24{fill:url(#linear-gradient-16);}.cls-25{fill:url(#linear-gradient-17);}.cls-26,.cls-30,.cls-42,.cls-82{mix-blend-mode:multiply;}.cls-27{fill:url(#linear-gradient-18);}.cls-28{fill:url(#linear-gradient-19);}.cls-29{fill:url(#linear-gradient-20);}.cls-30,.cls-38,.cls-41,.cls-82{opacity:0.3;}.cls-31{fill:url(#linear-gradient-21);}.cls-32{fill:url(#linear-gradient-22);}.cls-33{fill:url(#linear-gradient-23);}.cls-34{fill:url(#linear-gradient-24);}.cls-35{fill:url(#linear-gradient-25);}.cls-36{fill:url(#linear-gradient-26);}.cls-37{fill:url(#linear-gradient-27);}.cls-38{fill:url(#linear-gradient-28);}.cls-39{fill:url(#linear-gradient-29);}.cls-40{fill:url(#linear-gradient-30);}.cls-43{fill:url(#linear-gradient-31);}.cls-44{fill:url(#linear-gradient-32);}.cls-45{fill:url(#linear-gradient-33);}.cls-46{fill:url(#linear-gradient-34);}.cls-47{fill:url(#linear-gradient-35);}.cls-48{fill:url(#linear-gradient-36);}.cls-49{fill:url(#linear-gradient-37);}.cls-50{fill:url(#linear-gradient-38);}.cls-51{fill:url(#linear-gradient-39);}.cls-52{fill:url(#linear-gradient-40);}.cls-53{fill:url(#linear-gradient-41);}.cls-54{fill:url(#linear-gradient-42);}.cls-55{fill:url(#linear-gradient-43);}.cls-56{fill:url(#linear-gradient-44);}.cls-57{fill:url(#linear-gradient-45);}.cls-58{fill:url(#linear-gradient-46);}.cls-59{fill:url(#linear-gradient-47);}.cls-60{fill:url(#linear-gradient-48);}.cls-61{fill:url(#linear-gradient-49);}.cls-62{fill:url(#linear-gradient-50);}.cls-63{fill:url(#linear-gradient-51);}.cls-64{fill:url(#linear-gradient-52);}.cls-65{fill:url(#linear-gradient-53);}.cls-66{fill:url(#linear-gradient-54);}.cls-67{fill:url(#linear-gradient-55);}.cls-68{fill:url(#linear-gradient-56);}.cls-69{fill:url(#linear-gradient-57);}.cls-70{fill:url(#linear-gradient-58);}.cls-71{fill:url(#linear-gradient-59);}.cls-72{fill:url(#linear-gradient-60);}.cls-73{fill:url(#linear-gradient-61);}.cls-74{fill:url(#linear-gradient-62);}.cls-75{fill:url(#linear-gradient-63);}.cls-76{fill:url(#linear-gradient-64);}.cls-77{fill:url(#linear-gradient-65);}.cls-78{fill:url(#linear-gradient-66);}.cls-79{fill:url(#linear-gradient-67);}.cls-80{fill:url(#linear-gradient-68);}.cls-81{fill:url(#linear-gradient-69);}.cls-82{fill:url(#linear-gradient-70);}.cls-83{fill:url(#linear-gradient-71);}.cls-84{fill:url(#linear-gradient-72);}.cls-85{fill:url(#linear-gradient-73);}.cls-86{fill:url(#linear-gradient-74);}</style><linearGradient id="linear-gradient" x1="2029.46" y1="2690.2" x2="2036.93" y2="2970.37" gradientUnits="userSpaceOnUse"><stop offset="0" stop-color="#444b8c"/><stop offset="1" stop-color="#26264f"/></linearGradient><linearGradient id="linear-gradient-2" x1="1578.15" y1="1591.85" x2="3061.91" y2="2313.78" gradientUnits="userSpaceOnUse"><stop offset="0" stop-color="#444b8c"/><stop offset="0.64" stop-color="#313365"/><stop offset="1" stop-color="#26264f"/></linearGradient><linearGradient id="linear-gradient-3" x1="846.92" y1="1800.61" x2="3027.36" y2="1800.61" gradientUnits="userSpaceOnUse"><stop offset="0" stop-color="#fff"/><stop offset="1" stop-color="#ebeff2"/></linearGradient><linearGradient id="linear-gradient-4" x1="1480.84" y1="-447.61" x2="2201.83" y2="2152.48" gradientUnits="userSpaceOnUse"><stop offset="0" stop-color="#aa80f9"/><stop offset="1" stop-color="#6165d7"/></linearGradient><linearGradient id="linear-gradient-5" x1="1261.22" y1="2242.03" x2="2745.24" y2="2964.08" xlink:href="#linear-gradient"/><linearGradient id="linear-gradient-6" x1="89.92" y1="2380.01" x2="1386.42" y2="2380.01" gradientUnits="userSpaceOnUse"><stop offset="0" stop-color="#ffc444"/><stop offset="1" stop-color="#f36f56"/></linearGradient><linearGradient id="linear-gradient-7" x1="752.23" y1="3311.61" x2="857.91" y2="3071.22" xlink:href="#linear-gradient-4"/><linearGradient id="linear-gradient-8" x1="1040.89" y1="3072.34" x2="2265.84" y2="3341.75" gradientUnits="userSpaceOnUse"><stop offset="0" stop-color="#f4f7fa"/><stop offset="1" stop-color="#d8dee8"/></linearGradient><linearGradient id="linear-gradient-9" x1="1006.38" y1="3174.14" x2="1921.46" y2="3174.14" xlink:href="#linear-gradient-4"/><linearGradient id="linear-gradient-10" x1="905.65" y1="2663.43" x2="720.37" y2="3287.55" xlink:href="#linear-gradient-6"/><linearGradient id="linear-gradient-11" x1="1096.87" y1="2817.76" x2="2321.83" y2="3087.17" xlink:href="#linear-gradient-8"/><linearGradient id="linear-gradient-12" x1="1006.38" y1="2913.86" x2="1921.46" y2="2913.86" xlink:href="#linear-gradient-6"/><linearGradient id="linear-gradient-13" x1="2776.83" y1="3147.26" x2="3066.04" y2="3329.8" gradientTransform="translate(-43.65 -31.14) rotate(1.88)" gradientUnits="userSpaceOnUse"><stop offset="0" stop-color="#ab316d"/><stop offset="1" stop-color="#792d3d"/></linearGradient><linearGradient id="linear-gradient-14" x1="215.43" y1="1313.34" x2="72.87" y2="1333.92" gradientTransform="matrix(-0.07, -1, 1, -0.07, 1369.79, 3435.6)" xlink:href="#linear-gradient-13"/><linearGradient id="linear-gradient-15" x1="123.95" y1="459.82" x2="53.61" y2="1161.44" gradientTransform="matrix(-0.07, -1, 1, -0.07, 1369.79, 3435.6)" xlink:href="#linear-gradient-6"/><linearGradient id="linear-gradient-16" x1="100.66" y1="398.49" x2="94.78" y2="651.25" gradientTransform="matrix(-0.07, -1, 1, -0.07, 1369.79, 3435.6)" xlink:href="#linear-gradient-13"/><linearGradient id="linear-gradient-17" x1="2672.79" y1="1037.73" x2="2778.23" y2="1037.73" gradientTransform="matrix(1, 0, 0, 1, 0, 0)" xlink:href="#linear-gradient-13"/><linearGradient id="linear-gradient-18" x1="3045.34" y1="912.62" x2="2651.22" y2="1611.15" gradientUnits="userSpaceOnUse"><stop offset="0" stop-color="#ff9085"/><stop offset="1" stop-color="#fb6fbb"/></linearGradient><linearGradient id="linear-gradient-19" x1="2781.23" y1="4162.19" x2="2797.44" y2="2956.21" xlink:href="#linear-gradient"/><linearGradient id="linear-gradient-20" x1="2820.31" y1="4155.05" x2="2836.47" y2="2953.31" xlink:href="#linear-gradient-4"/><linearGradient id="linear-gradient-21" x1="2514.26" y1="2361.83" x2="3168.91" y2="2361.83" xlink:href="#linear-gradient-4"/><linearGradient id="linear-gradient-22" x1="2514.26" y1="2463.71" x2="3168.53" y2="2463.71" xlink:href="#linear-gradient-4"/><linearGradient id="linear-gradient-23" x1="2852.27" y1="2200.66" x2="2807.97" y2="3210.54" gradientUnits="userSpaceOnUse"><stop offset="0" stop-color="#e38ddd"/><stop offset="1" stop-color="#9571f6"/></linearGradient><linearGradient id="linear-gradient-24" x1="3046.19" y1="2312.69" x2="3037.5" y2="2510.76" gradientUnits="userSpaceOnUse"><stop offset="0" stop-color="#311944"/><stop offset="1" stop-color="#a03976"/></linearGradient><linearGradient id="linear-gradient-25" x1="3095.76" y1="2311.84" x2="3087.07" y2="2510.1" xlink:href="#linear-gradient-24"/><linearGradient id="linear-gradient-26" x1="3046.15" y1="2365.42" x2="3036.84" y2="2577.56" xlink:href="#linear-gradient-24"/><linearGradient id="linear-gradient-27" x1="3095.85" y1="2360.83" x2="3085.91" y2="2587.32" xlink:href="#linear-gradient-24"/><linearGradient id="linear-gradient-28" x1="6163.03" y1="-5343.62" x2="6154.64" y2="-5152.4" gradientTransform="translate(-2239 -3789) rotate(90)" xlink:href="#linear-gradient-24"/><linearGradient id="linear-gradient-29" x1="6111.39" y1="-5343.63" x2="6103" y2="-5152.36" gradientTransform="translate(-2239 -3789) rotate(90)" xlink:href="#linear-gradient-24"/><linearGradient id="linear-gradient-30" x1="6217.2" y1="-5344.88" x2="6208.17" y2="-5139.03" gradientTransform="translate(-2239 -3789) rotate(90)" xlink:href="#linear-gradient-24"/><linearGradient id="linear-gradient-31" x1="3182.94" y1="2295.71" x2="2149.08" y2="2870.83" gradientUnits="userSpaceOnUse"><stop offset="0" stop-color="#444b8c"/><stop offset="1" stop-color="#3e4177"/></linearGradient><linearGradient id="linear-gradient-32" x1="3205.08" y1="2364.43" x2="2203.64" y2="2921.52" xlink:href="#linear-gradient-31"/><linearGradient id="linear-gradient-33" x1="3225.17" y1="2428.9" x2="2253.53" y2="2969.41" xlink:href="#linear-gradient-31"/><linearGradient id="linear-gradient-34" x1="3252.55" y1="2489.38" x2="2310.27" y2="3013.56" xlink:href="#linear-gradient-31"/><linearGradient id="linear-gradient-35" x1="3235.3" y1="2377.43" x2="2196.4" y2="2955.36" xlink:href="#linear-gradient-31"/><linearGradient id="linear-gradient-36" x1="3255.13" y1="2445.46" x2="2248.81" y2="3005.27" xlink:href="#linear-gradient-31"/><linearGradient id="linear-gradient-37" x1="3273.1" y1="2509.28" x2="2296.73" y2="3052.43" xlink:href="#linear-gradient-31"/><linearGradient id="linear-gradient-38" x1="3298.41" y1="2569.07" x2="2351.55" y2="3095.8" xlink:href="#linear-gradient-31"/><linearGradient id="linear-gradient-39" x1="3288.07" y1="2456.24" x2="2244.24" y2="3036.91" xlink:href="#linear-gradient-31"/><linearGradient id="linear-gradient-40" x1="3305.6" y1="2523.63" x2="2294.52" y2="3086.09" xlink:href="#linear-gradient-31"/><linearGradient id="linear-gradient-41" x1="3321.44" y1="2586.84" x2="2340.46" y2="3132.56" xlink:href="#linear-gradient-31"/><linearGradient id="linear-gradient-42" x1="3344.69" y1="2645.99" x2="2393.36" y2="3175.21" xlink:href="#linear-gradient-31"/><linearGradient id="linear-gradient-43" x1="3341.23" y1="2532.16" x2="2292.6" y2="3115.5" xlink:href="#linear-gradient-31"/><linearGradient id="linear-gradient-44" x1="3356.46" y1="2598.96" x2="2340.73" y2="3164" xlink:href="#linear-gradient-31"/><linearGradient id="linear-gradient-45" x1="3370.18" y1="2661.6" x2="2384.69" y2="3209.82" xlink:href="#linear-gradient-31"/><linearGradient id="linear-gradient-46" x1="3395.09" y1="2615.29" x2="2341.32" y2="3201.49" xlink:href="#linear-gradient-31"/><linearGradient id="linear-gradient-47" x1="3407.95" y1="2681.4" x2="2387.25" y2="3249.21" xlink:href="#linear-gradient-31"/><linearGradient id="linear-gradient-48" x1="3419.49" y1="2743.39" x2="2429.18" y2="3294.29" xlink:href="#linear-gradient-31"/><linearGradient id="linear-gradient-49" x1="3412.29" y1="2761.75" x2="2460.12" y2="3291.43" xlink:href="#linear-gradient-31"/><linearGradient id="linear-gradient-50" x1="2630.34" y1="2539.01" x2="2613.28" y2="2927.93" xlink:href="#linear-gradient"/><linearGradient id="linear-gradient-51" x1="2783.57" y1="2533.27" x2="2766.83" y2="2914.86" xlink:href="#linear-gradient"/><linearGradient id="linear-gradient-52" x1="2936.83" y1="2527.53" x2="2920.42" y2="2901.8" xlink:href="#linear-gradient"/><linearGradient id="linear-gradient-53" x1="3084.94" y1="2521.97" x2="3068.83" y2="2889.2" xlink:href="#linear-gradient"/><linearGradient id="linear-gradient-54" x1="2630.32" y1="2648.71" x2="2612.98" y2="3043.95" xlink:href="#linear-gradient"/><linearGradient id="linear-gradient-55" x1="2783.47" y1="2641.15" x2="2766.47" y2="3028.84" xlink:href="#linear-gradient"/><linearGradient id="linear-gradient-56" x1="2936.66" y1="2633.58" x2="2919.99" y2="3013.74" xlink:href="#linear-gradient"/><linearGradient id="linear-gradient-57" x1="3084.7" y1="2626.26" x2="3068.34" y2="2999.19" xlink:href="#linear-gradient"/><linearGradient id="linear-gradient-58" x1="2630.3" y1="2755.76" x2="2612.69" y2="3157.17" xlink:href="#linear-gradient"/><linearGradient id="linear-gradient-59" x1="2783.37" y1="2746.42" x2="2766.11" y2="3140.07" xlink:href="#linear-gradient"/><linearGradient id="linear-gradient-60" x1="2936.49" y1="2737.07" x2="2919.57" y2="3122.99" xlink:href="#linear-gradient"/><linearGradient id="linear-gradient-61" x1="3084.47" y1="2728.03" x2="3067.86" y2="3106.52" xlink:href="#linear-gradient"/><linearGradient id="linear-gradient-62" x1="2630.27" y1="2860.15" x2="2612.4" y2="3267.6" xlink:href="#linear-gradient"/><linearGradient id="linear-gradient-63" x1="2783.28" y1="2849.08" x2="2765.76" y2="3248.56" xlink:href="#linear-gradient"/><linearGradient id="linear-gradient-64" x1="2936.33" y1="2838" x2="2919.16" y2="3229.56" xlink:href="#linear-gradient"/><linearGradient id="linear-gradient-65" x1="2630.25" y1="2972.06" x2="2612.1" y2="3386.01" xlink:href="#linear-gradient"/><linearGradient id="linear-gradient-66" x1="2783.18" y1="2959.14" x2="2765.38" y2="3364.9" xlink:href="#linear-gradient"/><linearGradient id="linear-gradient-67" x1="2936.16" y1="2946.2" x2="2918.72" y2="3343.82" xlink:href="#linear-gradient"/><linearGradient id="linear-gradient-68" x1="3088.68" y1="2776.17" x2="3045.79" y2="3754" xlink:href="#linear-gradient"/><linearGradient id="linear-gradient-69" x1="1791.7" y1="6711.53" x2="1973.64" y2="1656.12" xlink:href="#linear-gradient-4"/><linearGradient id="linear-gradient-70" x1="1924.72" y1="2215.67" x2="1937.96" y2="1847.66" xlink:href="#linear-gradient-4"/><linearGradient id="linear-gradient-71" x1="1511.37" y1="873.07" x2="1435.49" y2="1439.15" xlink:href="#linear-gradient-4"/><linearGradient id="linear-gradient-72" x1="1500.61" y1="712.8" x2="1401.54" y2="1971.82" xlink:href="#linear-gradient-4"/><linearGradient id="linear-gradient-73" x1="2588.57" y1="1302.9" x2="1921.94" y2="2462.38" xlink:href="#linear-gradient-6"/><linearGradient id="linear-gradient-74" x1="2515.86" y1="2344.81" x2="2559.44" y2="1937.43" xlink:href="#linear-gradient-6"/></defs><g class="cls-1"><g id="Illustration"><path class="cls-2" d="M1989.52,460.89c-307.45,122.25-336.9,434.74-613.72,461.56-241.2,23.37-332.88-202.84-502.13-162.3-257.81,61.74-419.9,676.39-316.36,1181.78,106.92,521.86,556.13,1215.6,1300.34,1262.94C2693.18,3258,3325.38,2459.81,3364,1759.34c4.18-75.76,28.83-710.47-456.42-1085.42C2883.31,655.19,2405.14,295.64,1989.52,460.89Z" transform="translate(-518.75 -417.58)"/><path class="cls-3" d="M3029.28,1307.63c30.2,15.33,68.13,1.25,84.74-31.45s5.57-71.63-24.62-87c-1.57-.79-3.16-1.46-4.77-2.1a380.6,380.6,0,0,0,12.68-54.56c1.73,0,3.47,0,5.23-.19,34.45-3.08,61.8-34.73,61.08-70.71s-29.24-62.67-63.69-59.59c-1.8.16-3.57.44-5.33.75a351.08,351.08,0,0,0-14.75-52.1c1.59-.93,3.17-1.89,4.71-3,29.47-20.65,38.89-61.4,21-91s-56.21-36.9-85.69-16.25c-1.51,1.06-2.93,2.2-4.33,3.36a310.36,310.36,0,0,0-38.23-35.68c1-1.59,1.93-3.21,2.79-4.9,16.6-32.7,38.29-68.41,7.86-83.27-70.4-34.37-100.61-5-117.21,27.75-.86,1.69-1.6,3.41-2.32,5.14a311.78,311.78,0,0,0-51.36-9.81c.11-1.82.19-3.64.16-5.48-.72-36,9.95-55.45-24.63-56.12-75.41-1.47-100.85,31.26-100.13,67.24,0,1.88.19,3.72.38,5.55a350.16,350.16,0,0,0-50.77,18.84c-.79-1.61-1.6-3.2-2.53-4.75-17.85-29.63-56.22-36.9-85.69-16.25s-38.9,61.4-21.05,91c.91,1.52,1.92,2.94,2.93,4.34a383.71,383.71,0,0,0-36.57,42.43c-1.46-.92-2.94-1.81-4.51-2.61C2464.51,872,2426.57,886,2410,918.73s-5.58,71.63,24.62,87c1.56.79,3.16,1.46,4.76,2.1a383.31,383.31,0,0,0-12.68,54.56c-1.73,0-3.46,0-5.23.19-34.45,3.08-61.79,34.73-61.07,70.72s29.24,62.65,63.69,59.58c1.8-.16,3.56-.44,5.32-.75a351.55,351.55,0,0,0,14.75,52.11c-1.58.92-3.16,1.88-4.7,3-29.47,20.65-38.9,61.41-21,91s76.95,43.39,106.42,22.74c1.51-1.06-17.8-8.69-16.39-9.85a311,311,0,0,0,38.22,35.68c-1,1.59-1.92,3.21-2.78,4.9-16.6,32.7-5.58,71.63,24.62,87s68.13,1.26,84.73-31.44c.86-1.69,1.6-3.41,2.31-5.14a311.78,311.78,0,0,0,51.36,9.81c-.1,1.82-.19,3.64-.15,5.48.72,36,29.23,62.66,63.68,59.59s61.8-34.73,61.08-70.71c0-1.88-.2-3.72-.39-5.54a351.07,351.07,0,0,0,50.78-18.85c.78,1.61,1.6,3.2,2.53,4.75,17.85,29.63,56.21,36.9,85.69,16.25s38.9-61.4,21-91c-.92-1.52-1.92-2.93-2.94-4.34a381.82,381.82,0,0,0,36.58-42.43C3026.24,1305.94,3027.72,1306.83,3029.28,1307.63Zm-376.42,4.77c-109.63-55.66-149.65-197-89.38-315.73s198-169.83,307.65-114.16,149.65,197,89.37,315.73S2762.5,1368.07,2652.86,1312.4Z" transform="translate(-518.75 -417.58)"/><path class="cls-4" d="M3102.54,1132.37c34.45-3.08,61.8-34.73,61.08-70.71s-29.24-62.67-63.69-59.59c-1.8.16-3.57.44-5.33.75a349.88,349.88,0,0,0-14.75-52.1c1.59-.93,3.17-1.89,4.71-3,29.47-20.65,65.93-70.54,45.14-98.18-39.47-52.46-80.31-29.75-109.79-9.1-1.51,1.06-2.93,2.2-4.33,3.36a310.36,310.36,0,0,0-38.23-35.68c1-1.59,1.93-3.21,2.79-4.9a68.6,68.6,0,0,0,3.86-54.09q-42.7,75.15-84.13,151c87.46,64.09,115.31,190.4,60.63,298.08-46.32,91.24-138.41,142.48-228.34,136.06-4,10.4-7.95,20.86-12.24,31.16-11.66,28-24.9,55.34-38.16,82.69q12.51,2.35,25.12,3.69c-.11,1.82-.2,3.64-.16,5.48.72,36,22.57,66.55,85,63.24,34.54-1.83,40.48-38.38,39.76-74.36,0-1.88-.2-3.72-.38-5.54a351.39,351.39,0,0,0,50.77-18.85c.78,1.61,1.6,3.2,2.53,4.75,17.85,29.63,79.77,42.21,109.25,21.56s15.34-66.71-2.51-96.34c-.92-1.52-1.92-2.94-2.94-4.34a381.82,381.82,0,0,0,36.58-42.43c1.46.92,2.94,1.81,4.5,2.61,30.2,15.33,68.13,1.25,84.74-31.45s5.57-71.63-24.62-87c-1.57-.79-3.16-1.46-4.77-2.1a380.6,380.6,0,0,0,12.68-54.56C3099,1132.55,3100.78,1132.52,3102.54,1132.37Z" transform="translate(-518.75 -417.58)"/><path class="cls-4" d="M3061.76,1311.32c30.2,15.33,68.13,1.25,84.73-31.44s5.58-71.63-24.62-87c-1.56-.8-3.16-1.47-4.76-2.1a383.75,383.75,0,0,0,12.68-54.57c1.73,0,3.47,0,5.23-.19,34.45-3.07,61.79-34.73,61.07-70.71s-29.23-62.66-63.68-59.59c-1.8.16-3.57.44-5.33.76a351.55,351.55,0,0,0-14.75-52.11c1.59-.93,3.16-1.89,4.7-3,29.48-20.64,38.9-61.4,21-91s-56.21-36.9-85.69-16.25c-1.51,1.06-2.93,2.2-4.33,3.36a311.85,311.85,0,0,0-38.23-35.68c1-1.59,1.92-3.2,2.78-4.9,16.6-32.69,5.58-71.63-24.61-87s-68.14-1.25-84.74,31.44c-.86,1.7-1.6,3.42-2.31,5.14a310.72,310.72,0,0,0-51.36-9.8c.11-1.82.19-3.64.15-5.49-.72-36-29.23-62.66-63.68-59.59s-61.8,34.73-61.07,70.71c0,1.88.19,3.72.38,5.55a351.34,351.34,0,0,0-50.77,18.84c-.79-1.6-1.6-3.2-2.54-4.75-17.85-29.62-56.21-36.9-85.69-16.25s-38.89,61.41-21,91c.91,1.52,1.91,2.94,2.93,4.34a382.65,382.65,0,0,0-36.57,42.43c-1.46-.91-2.94-1.81-4.51-2.6-30.19-15.33-68.13-1.26-84.73,31.44s-5.58,71.63,24.62,87c1.56.79,3.16,1.46,4.76,2.1a383.44,383.44,0,0,0-12.68,54.57c-1.73,0-3.47,0-5.23.19-34.45,3.07-61.79,34.73-61.07,70.71s29.23,62.66,63.68,59.59c1.8-.16,3.57-.45,5.33-.76a351.55,351.55,0,0,0,14.75,52.11c-1.58.93-3.16,1.88-4.7,3-29.48,20.65-38.9,61.41-21,91s56.22,36.91,85.69,16.26c1.51-1.06,2.93-2.2,4.34-3.36a312.54,312.54,0,0,0,38.22,35.68c-1,1.59-1.92,3.2-2.78,4.9-16.6,32.69-5.58,71.62,24.61,87s68.14,1.25,84.74-31.45c.86-1.69,1.6-3.41,2.31-5.13a310.72,310.72,0,0,0,51.36,9.8c-.11,1.82-.19,3.64-.15,5.48.72,36,29.23,62.66,63.68,59.59s61.8-34.73,61.07-70.71c0-1.88-.19-3.71-.38-5.54a352.08,352.08,0,0,0,50.77-18.84c.79,1.6,1.6,3.2,2.54,4.74,17.85,29.63,56.21,36.91,85.69,16.26s38.89-61.41,21-91c-.91-1.51-1.91-2.93-2.93-4.33a382.76,382.76,0,0,0,36.57-42.44C3058.71,1309.63,3060.19,1310.53,3061.76,1311.32Zm-376.42,4.78c-109.64-55.67-149.65-197-89.38-315.74S2794,830.54,2903.6,886.2s149.66,197,89.38,315.74S2795,1371.76,2685.34,1316.1Z" transform="translate(-518.75 -417.58)"/><path class="cls-5" d="M3063.76,2391.34V1116.26c0-26.15-21.69-29.15-48.1-30.21L825.19,978.74c-33.33-1.34-60.69,21.69-60.69,51.19V2439.09Z" transform="translate(-518.75 -417.58)"/><path class="cls-5" d="M764.5,2439.09v281.42c0,29.5,27.36,52.47,60.69,51.06l2180.69-111.4c26.41-1.11,57.88-4.63,57.88-30.77V2383.16Z" transform="translate(-518.75 -417.58)"/><path class="cls-5" d="M2288.69,2961.19a116.58,116.58,0,0,1-77.3-87.77l-57.46-284.37-491.49,17.46L1602,2902.75c-8.48,41.49,25.44,83.11,64.49,98.4l205.63,80.45A267.47,267.47,0,0,0,1992.3,3099l434.57-37.18a27,27,0,0,0,24.37-23.88c1.48-12.81,10.38-27.2-1.74-31.22Z" transform="translate(-518.75 -417.58)"/><path class="cls-6" d="M2293.56,2943.9a115.57,115.57,0,0,1-77.23-86.67l-57.4-280.79-479.51,17.25L1619,2886.21a85.57,85.57,0,0,0,52.94,97.14l205.42,79.44a269.89,269.89,0,0,0,120.1,17.21l434.13-36.71a26.78,26.78,0,0,0,6.09-52.14Z" transform="translate(-518.75 -417.58)"/><path class="cls-7" d="M3079.75,1116.26v1275.1l-1356.26,28.13L778,2439.1V1029.91c0-29.47,27.93-52.52,61.28-51.18l185,7.43L3031,1066.81C3057.4,1067.86,3079.75,1090.12,3079.75,1116.26Z" transform="translate(-518.75 -417.58)"/><path class="cls-8" d="M846.92,1226V2326.79c0,27.48,25.4,49.24,56.35,48.35l2079-59.12c24.81-.71,45.06-21.33,45.06-45.84V1288.44Z" transform="translate(-518.75 -417.58)"/><path class="cls-9" d="M3027.36,1288.44V1175.77c0-24-19.83-44.38-44.13-45.29L902.12,1052.84c-30.32-1.13-55.2,20-55.2,46.88V1226Z" transform="translate(-518.75 -417.58)"/><path class="cls-10" d="M999.05,1140.34c0,9.46-8.62,16.85-19.27,16.52s-19.32-8.3-19.32-17.79,8.66-16.88,19.32-16.51S999.05,1130.88,999.05,1140.34Z" transform="translate(-518.75 -417.58)"/><path class="cls-10" d="M1082.11,1143.07c0,9.4-8.52,16.75-19,16.42s-19.09-8.25-19.09-17.68,8.55-16.78,19.09-16.42S1082.11,1133.66,1082.11,1143.07Z" transform="translate(-518.75 -417.58)"/><path class="cls-10" d="M1164.2,1145.76c0,9.35-8.42,16.66-18.83,16.33s-18.87-8.19-18.87-17.57,8.46-16.68,18.87-16.33S1164.2,1136.41,1164.2,1145.76Z" transform="translate(-518.75 -417.58)"/><path class="cls-11" d="M3079.75,2383.17V2629.4c0,26.14-22.2,48.43-48.63,49.55l-79.75,3.37L839.43,2771.57C806.09,2773,778,2750,778,2720.49V2439.1l942.67-22.91Z" transform="translate(-518.75 -417.58)"/><path class="cls-12" d="M2951,2682.32,839.27,2771.57C805.92,2773,778,2750,778,2720.49V1029.91c0-29.47,27.93-52.52,61.28-51.18l185,7.43c28.39,19,53.8,42.52,74.1,70.43.9,1.23,1.85,2.47,2.68,3.7a261.4,261.4,0,0,1,34.88,69.85,301.53,301.53,0,0,1,8.57,31.9c5.11,23.81,7.62,48.13,8.67,72.78,2.25,52.09-1.84,105.56-1.63,158.23.44,106.75,7.11,213.43,77.94,299.37,52.45,63.65,137.89,87.83,208.79,124.84,82.76,43.21,155.36,100.52,197.41,185.63,51.62,104.46,3.15,217.92,36.14,325.83a221.93,221.93,0,0,0,9,24.32,255.91,255.91,0,0,0,39.73,63.15c.9,1.12,1.85,2.21,2.82,3.3,63.11,72.53,164.14,117.84,251.71,139.77,179.72,44.95,366.11-33,544.52-39.08,128.54-4.38,306.3,24.62,400.84,121.29A207.5,207.5,0,0,1,2951,2682.32Z" transform="translate(-518.75 -417.58)"/><polygon class="cls-13" points="89.92 2319.21 692.34 2293.02 1386.42 2317.34 701.69 2467.01 89.92 2319.21"/><path class="cls-14" d="M1094.05,3317.3,606.08,3186c-49.15-13.23-87.33-61.92-87.33-109.14v-.52c0-47.22,38.18-78.9,87.33-70.23l523.37,85.64Z" transform="translate(-518.75 -417.58)"/><path class="cls-15" d="M1906,3218.67l-788.45,88c-49.39,5.52-90-28.92-90-77v-32.61c0-48.07,40.6-90.28,90-94.21L1906,3040.14C1871.12,3105.09,1863.07,3165.86,1906,3218.67Z" transform="translate(-518.75 -417.58)"/><path class="cls-16" d="M1912.87,3227.41l-788.71,89.43c-64.41,7.31-117.78-37.81-117.78-100.7v-.7c0-62.89,53.37-118.22,117.78-123.24l788.71-61.52c4.75-.37,8.59,3.58,8.59,8.83s-3.84,9.8-8.59,10.19l-788.71,64.21c-51.81,4.22-94.6,48.8-94.6,99.32v.69c0,50.51,42.79,86.9,94.6,81.2l788.71-86.73c4.75-.52,8.59,3.31,8.59,8.55S1917.62,3226.88,1912.87,3227.41Z" transform="translate(-518.75 -417.58)"/><path class="cls-17" d="M1114.55,3092.25l-508.47-86.17c-49.15-8.67-87.33-73.09-87.33-144v-.78c0-70.9,38.18-127.16,87.33-125.34l539.38,20Z" transform="translate(-518.75 -417.58)"/><path class="cls-18" d="M1906,3016.92l-744.26,56.14c-73.41,5.53-134.18-48.4-134.18-120.58v-49c0-72.19,60.77-132.36,134.18-134.36L1906,2748.86C1871,2846.18,1863.19,2937.32,1906,3016.92Z" transform="translate(-518.75 -417.58)"/><path class="cls-19" d="M1912.87,3030.68l-788.71,61.52c-64.41,5-117.78-67.65-117.78-162.08v-1c0-94.44,53.37-172.59,117.78-174.19l788.71-19.6c4.75-.12,8.59,6.17,8.59,14s-3.84,14.37-8.59,14.51l-788.71,23.66c-51.81,1.55-94.6,64.54-94.6,140.39v1c0,75.85,42.79,134.44,94.6,130.67l788.71-57.47c4.75-.34,8.59,5.76,8.59,13.63S1917.62,3030.31,1912.87,3030.68Z" transform="translate(-518.75 -417.58)"/><path class="cls-20" d="M956.87,3021.2l-108.69-19c-25.38-69.27-23.47-132.9,0-209L956.87,2801C934.59,2881,938,2953.5,956.87,3021.2Z" transform="translate(-518.75 -417.58)"/><path class="cls-21" d="M3276.57,3159.24l-1187.33,84.85,6.13,85.75L3282.7,3245Q3298.69,3200.75,3276.57,3159.24Z" transform="translate(-518.75 -417.58)"/><path class="cls-22" d="M3288.93,3218a97.51,97.51,0,0,0-2.18-32.26l-1195.57,85.44,2.3,32.25Z" transform="translate(-518.75 -417.58)"/><path class="cls-23" d="M2089.24,3244.09c18.54,27.08,20.77,55.65,6.13,85.75L1823.73,3309a2.85,2.85,0,0,1-.4-5.58Z" transform="translate(-518.75 -417.58)"/><path class="cls-24" d="M1823.73,3309l105.59,8.12a75.07,75.07,0,0,0-2.58-36.76l-103.41,23.06A2.85,2.85,0,0,0,1823.73,3309Z" transform="translate(-518.75 -417.58)"/><path class="cls-25" d="M2672.79,1052.42v-1.31c0-18.81,15-34,33.24-33.62l12.47-.63,59.73,23.11v18.63Z" transform="translate(-518.75 -417.58)"/><path class="cls-26" d="M2994.18,1448.66l-133-102.24-134.34,96V1119.81a84.83,84.83,0,0,0-31.67-65.56l-1-.84,253.52,9.66c25.7,1,46.49,22.65,46.49,48.41Z" transform="translate(-518.75 -417.58)"/><path class="cls-27" d="M3018.51,1435.22l-133-108.22-134.33,101.62V1087.13a91.8,91.8,0,0,0-31.68-69.38l-1-.89L2972,1027.08c25.7,1,46.49,24,46.49,51.24Z" transform="translate(-518.75 -417.58)"/><path class="cls-28" d="M3132,2294.48l-2.1,711.68c-.1,34.89-28.32,66.64-63.68,70.26L2546,3129.68c-40.08,4.1-72.87-23.61-72.87-61.15v-766c0-35.56,29.1-64.89,66-68.45,2.35-.23,4.75-.3,7.16-.32l522.22-2.49A62.84,62.84,0,0,1,3132,2294.48Z" transform="translate(-518.75 -417.58)"/><path class="cls-29" d="M3168.91,2294l-2.18,709.48c-.11,34.78-26.69,66.27-61.82,69.86l-516.73,52.9c-39.79,4.08-74-23.38-74-60.8l.11-763.47c0-35.44,29.71-64.68,66.38-68.22,2.34-.23,5.54-.31,7.93-.32l518.67-2.48C3142.52,2230.74,3169,2258.93,3168.91,2294Z" transform="translate(-518.75 -417.58)"/><g class="cls-30"><path class="cls-31" d="M3168.91,2293l-.55,178.31-654.1,21.49,0-191.92c0-34.59,28.36-62.74,63.79-67.37,3.17-.42,7.23-.07,10.52-.08l518.67-2.48C3142.52,2230.74,3169,2257.93,3168.91,2293Z" transform="translate(-518.75 -417.58)"/><path class="cls-32" d="M3168.53,2416.46l-.23,74.1c-63.46,20.07-180.25,36.3-314.26,41.47-59.19,2.28-116.41,2.2-168.12.06-68.86-2.85-127-9.36-171.66-18.57v-79.74c16.8-4.14,32.25-8,50.57-11.59,39.83-7.87,87.78-14.49,140.17-19.37,46.82-4.36,97.62-7.32,150-8.53,67.44-1.55,130,0,183.86,3.92,4.18.29,8.36.62,12.44.95,12.86,1.06,25.23,2.26,37,3.59,4.15.47,8.25,1,12.26,1.47,9.21,1.16,17.13,2.42,25.51,3.75C3142.16,2410.51,3156.42,2413.35,3168.53,2416.46Z" transform="translate(-518.75 -417.58)"/></g><path class="cls-10" d="M3136.88,2433.61a20,20,0,0,1-19.3,19.78l-536.83,16.43c-12,.36-21.82-8.51-21.81-19.82l0-128.21c0-11.33,9.8-20.63,21.85-20.78l537.2-6.52a18.89,18.89,0,0,1,19.21,19Z" transform="translate(-518.75 -417.58)"/><path class="cls-33" d="M3124.68,2431.27a12.65,12.65,0,0,1-12.22,12.5l-534.19,15.74c-7.61.22-13.78-5.38-13.78-12.53l.05-127.61c0-7.15,6.18-13,13.79-13.13l534.54-6.8a12,12,0,0,1,12.15,12Z" transform="translate(-518.75 -417.58)"/><path class="cls-34" d="M3050.84,2360.17c0,3.33-2.74,5.51-6.1,5.56h-.28c-3.37.05-6.09-2-6.08-5.32l.06-24.73a6,6,0,0,1,6.11-5.91h.28a5.73,5.73,0,0,1,6.07,5.7Z" transform="translate(-518.75 -417.58)"/><path class="cls-35" d="M3100.34,2359.3c0,3.31-2.71,5.57-6,5.63H3094c-3.33.06-6-2.08-6-5.39l.07-24.66a6,6,0,0,1,6-5.94h.28a5.73,5.73,0,0,1,6,5.73Z" transform="translate(-518.75 -417.58)"/><path class="cls-36" d="M3050.7,2415.5c0,3.33-2.74,6.68-6.1,6.73h-.28c-3.36.05-6.09-3.09-6.08-6.42l.06-25.44c0-3.33,2.75-6.61,6.11-6.67h.29c3.36-.05,6.07,3.06,6.07,6.38Z" transform="translate(-518.75 -417.58)"/><path class="cls-37" d="M3100.2,2414.51c0,3.3-2.71,4.36-6,7h-.28c-3.32.05-6-3.36-6-6.67l.06-26.57c0-3.31,2.72-7.84,6-7.89h.27c3.33,0,6,4.32,6,7.62Z" transform="translate(-518.75 -417.58)"/><path class="cls-38" d="M3088.16,2372.25a6.3,6.3,0,0,1-6.14,6.15l-23.81.54c-3.36.08-4.82-2.56-4.82-5.88v-.28c0-3.33,1.45-6.07,4.8-6.14l24.51-.52c3.33-.07,5.46,2.54,5.46,5.85Z" transform="translate(-518.75 -417.58)"/><path class="cls-39" d="M3088.16,2320.72a6.18,6.18,0,0,1-6.07,6.11l-23.85.4c-3.36.05-4.85-2.6-4.85-5.93V2321c0-3.32,1.51-6.05,4.87-6.1l24.48-.37c3.33-.05,5.42,2.58,5.42,5.9Z" transform="translate(-518.75 -417.58)"/><path class="cls-40" d="M3088.16,2426.21a6.41,6.41,0,0,1-6.21,6.18l-25.12.69a5.88,5.88,0,0,1-6.11-5.85V2427a6.22,6.22,0,0,1,6.07-6.16l25.2-.68a5.93,5.93,0,0,1,6.17,5.82Z" transform="translate(-518.75 -417.58)"/><path class="cls-41" d="M2894.08,3048.86a144.72,144.72,0,0,1-10.88,35.23c-1.86,4-4,8.25-6.29,12.55l-288.73,29.56c-39.79,4.08-74-23.38-74-60.8l.11-764.56c0-34.59,28.36-63.32,63.79-68,.86.24,2.14.51,3,.77,37.27,11.28,77.86,32.3,102.1,71.63,15.15,24.55,24.14,56.31,22.13,97.53a277,277,0,0,1-3.78,33.94q-1.8,10.45-3.62,21.34-2.3,13.59-4.49,27.74c-2.33,15.09-4.48,30.56-6.2,46.2-1.65,15-2.9,30.13-3.53,45.23q-.18,4.38-.29,8.76-.36,14.16.13,28.16.35,9.57,1.16,19c3.08,35.33,11.39,68.94,28.05,98.09,12.58,22,31.52,38.77,51.4,54.23,5.24,4.07,10.55,8.06,15.82,12,18.08,13.62,35.31,27.78,50.63,43.68l1.13,1.18a243.48,243.48,0,0,1,20.75,24.78,181.49,181.49,0,0,1,18,30.85c1.92,4.14,3.69,8.36,5.34,12.63,2.83,7.33,5.27,14.87,7.39,22.56q1.44,5.18,2.78,10.5a2.58,2.58,0,0,1,.11.42,363.73,363.73,0,0,1,8.6,43.71C2897.29,3008,2897.67,3028.7,2894.08,3048.86Z" transform="translate(-518.75 -417.58)"/><g class="cls-42"><path class="cls-43" d="M2684.83,2622.22c0,7.51-6.44,13.92-14.37,14.31l-96.88,4.77c-8.12.4-14.7-5.45-14.7-13.06v-34.77c0-7.62,6.6-14.07,14.72-14.42l96.9-4.12c7.94-.33,14.36,5.48,14.35,13Z" transform="translate(-518.75 -417.58)"/><path class="cls-44" d="M2841.4,2614.74c0,7.38-6.22,13.67-13.89,14.05L2734,2633.4c-7.83.38-14.19-5.37-14.18-12.85l0-34.16c0-7.48,6.38-13.82,14.22-14.16l93.56-4c7.66-.33,13.85,5.4,13.84,12.78Z" transform="translate(-518.75 -417.58)"/><path class="cls-45" d="M2987.6,2607.76a14.15,14.15,0,0,1-13.44,13.8L2883.7,2626a12.74,12.74,0,0,1-13.71-12.65l.06-33.59a14.29,14.29,0,0,1,13.76-13.91l90.48-3.84a12.59,12.59,0,0,1,13.39,12.58Z" transform="translate(-518.75 -417.58)"/><path class="cls-46" d="M3134,2600.76a13.79,13.79,0,0,1-13,13.56l-87.44,4.31a12.39,12.39,0,0,1-13.23-12.44l.07-33a13.94,13.94,0,0,1,13.31-13.67l87.46-3.71a12.26,12.26,0,0,1,12.93,12.38Z" transform="translate(-518.75 -417.58)"/><path class="cls-47" d="M2684.73,2732.33c0,7.5-6.43,14-14.36,14.46l-96.83,5.95c-8.12.5-14.7-5.26-14.7-12.87v-34.73c0-7.61,6.6-14.14,14.71-14.58l96.86-5.3c7.93-.43,14.35,5.3,14.34,12.81Z" transform="translate(-518.75 -417.58)"/><path class="cls-48" d="M2841.22,2723c0,7.37-6.22,13.73-13.87,14.2l-93.49,5.74c-7.83.48-14.19-5.18-14.18-12.66l0-34.13c0-7.47,6.37-13.88,14.21-14.31l93.51-5.11c7.66-.42,13.85,5.22,13.84,12.6Z" transform="translate(-518.75 -417.58)"/><path class="cls-49" d="M2987.36,2714.19a14.34,14.34,0,0,1-13.43,13.95l-90.42,5.56c-7.58.46-13.72-5.12-13.71-12.47l.06-33.56c0-7.35,6.18-13.65,13.75-14.06l90.45-4.94a12.4,12.4,0,0,1,13.38,12.4Z" transform="translate(-518.75 -417.58)"/><path class="cls-50" d="M3133.65,2705.42a14,14,0,0,1-13,13.7l-87.4,5.38a12.21,12.21,0,0,1-13.23-12.27l.08-33a14.14,14.14,0,0,1,13.3-13.81l87.42-4.78a12.09,12.09,0,0,1,12.93,12.21Z" transform="translate(-518.75 -417.58)"/><path class="cls-51" d="M2684.63,2839.77c0,7.49-6.43,14-14.35,14.62l-96.79,7.1c-8.11.59-14.69-5.09-14.69-12.68V2814.1c0-7.6,6.6-14.2,14.71-14.74l96.81-6.44c7.93-.53,14.34,5.12,14.33,12.62Z" transform="translate(-518.75 -417.58)"/><path class="cls-52" d="M2841.05,2828.54c0,7.36-6.21,13.79-13.87,14.35l-93.44,6.85c-7.83.57-14.18-5-14.17-12.48l0-34.1c0-7.47,6.38-13.94,14.21-14.46l93.47-6.22c7.65-.51,13.84,5.05,13.83,12.42Z" transform="translate(-518.75 -417.58)"/><path class="cls-53" d="M2987.12,2818.05a14.54,14.54,0,0,1-13.42,14.1l-90.38,6.62c-7.57.56-13.71-4.94-13.7-12.29l.06-33.53c0-7.34,6.17-13.71,13.74-14.21l90.41-6A12.21,12.21,0,0,1,2987.2,2785Z" transform="translate(-518.75 -417.58)"/><path class="cls-54" d="M3133.35,2807.54a14.18,14.18,0,0,1-13,13.85L3033,2827.8a12,12,0,0,1-13.23-12.1l.08-33a14.33,14.33,0,0,1,13.29-14l87.39-5.81a11.9,11.9,0,0,1,12.92,12Z" transform="translate(-518.75 -417.58)"/><path class="cls-55" d="M2684.54,2944.55c0,7.49-6.43,14.1-14.35,14.78l-96.74,8.21c-8.11.69-14.69-4.91-14.68-12.5v-34.67c0-7.59,6.59-14.27,14.7-14.9l96.76-7.56c7.92-.62,14.33,5,14.33,12.45Z" transform="translate(-518.75 -417.58)"/><path class="cls-56" d="M2840.89,2931.51c0,7.36-6.22,13.85-13.87,14.5l-93.4,7.93c-7.82.67-14.17-4.84-14.16-12.3l0-34.06c0-7.47,6.37-14,14.2-14.62l93.43-7.3c7.65-.6,13.83,4.88,13.82,12.25Z" transform="translate(-518.75 -417.58)"/><path class="cls-57" d="M2986.9,2919.34a14.75,14.75,0,0,1-13.43,14.24l-90.34,7.67c-7.57.64-13.7-4.78-13.69-12.12l.06-33.5c0-7.34,6.17-13.76,13.74-14.36l90.36-7.06c7.41-.57,13.39,4.83,13.37,12.07Z" transform="translate(-518.75 -417.58)"/><path class="cls-58" d="M2684.43,3056.89c0,7.48-6.42,14.17-14.34,14.94l-96.68,9.41c-8.11.79-14.68-4.72-14.68-12.31V3034.3c0-7.59,6.59-14.33,14.69-15.07l96.72-8.75c7.92-.72,14.32,4.77,14.31,12.25Z" transform="translate(-518.75 -417.58)"/><path class="cls-59" d="M2840.71,3041.92c0,7.35-6.21,13.91-13.86,14.66l-93.35,9.08c-7.83.76-14.17-4.66-14.16-12.11l0-34c0-7.46,6.37-14.08,14.19-14.78l93.39-8.46c7.65-.69,13.83,4.71,13.81,12.07Z" transform="translate(-518.75 -417.58)"/><path class="cls-60" d="M2986.65,3027.94c0,7.23-6,13.67-13.42,14.39l-90.29,8.79c-7.57.74-13.7-4.61-13.69-11.93l.06-33.47c0-7.33,6.17-13.83,13.73-14.52l90.32-8.17c7.4-.67,13.38,4.65,13.36,11.88Z" transform="translate(-518.75 -417.58)"/><path class="cls-61" d="M3119.8,2862.79l-87.36,6.83c-7.31.57-12.82,8.83-12.84,16.05l0,18.55,0,15.49-.17,69.93,0,20.57,0,13.44c0,7.21,5.45,13.67,12.76,13l87.3-8.49c7.15-.7,13.4-8.21,13.42-15.32l0-13.27.06-20.3.2-69,0-15.29.05-18.31C3133.17,2869.48,3127,2862.24,3119.8,2862.79Z" transform="translate(-518.75 -417.58)"/></g><path class="cls-62" d="M2690.23,2622c0,7.51-6.43,13.91-14.36,14.3l-96.76,4.77c-8.1.4-14.69-5.45-14.68-13.06v-34.75c0-7.61,6.59-14.06,14.7-14.4l96.79-4.12c7.92-.33,14.33,5.48,14.33,13Z" transform="translate(-518.75 -417.58)"/><path class="cls-63" d="M2841.4,2614.74c0,7.38-6.22,13.67-13.89,14.05L2734,2633.4c-7.83.38-14.19-5.37-14.18-12.85l0-34.16c0-7.48,6.38-13.82,14.22-14.16l93.56-4c7.66-.33,13.85,5.4,13.84,12.78Z" transform="translate(-518.75 -417.58)"/><path class="cls-64" d="M2992.64,2607.51a14.12,14.12,0,0,1-13.42,13.8l-90.36,4.45a12.71,12.71,0,0,1-13.69-12.63l.06-33.58a14.27,14.27,0,0,1,13.74-13.9l90.38-3.84a12.58,12.58,0,0,1,13.37,12.57Z" transform="translate(-518.75 -417.58)"/><path class="cls-65" d="M3138.83,2600.53a13.77,13.77,0,0,1-13,13.55l-87.34,4.31a12.39,12.39,0,0,1-13.22-12.44l.08-33a13.92,13.92,0,0,1,13.29-13.66l87.36-3.71a12.26,12.26,0,0,1,12.92,12.37Z" transform="translate(-518.75 -417.58)"/><path class="cls-66" d="M2690.12,2732c0,7.49-6.42,14-14.34,14.45l-96.71,5.94c-8.11.5-14.69-5.26-14.68-12.86v-34.71c0-7.61,6.59-14.13,14.69-14.58l96.74-5.28c7.92-.44,14.33,5.29,14.32,12.79Z" transform="translate(-518.75 -417.58)"/><path class="cls-67" d="M2841.22,2723c0,7.37-6.22,13.73-13.87,14.2l-93.49,5.74c-7.83.48-14.19-5.18-14.18-12.66l0-34.13c0-7.47,6.37-13.88,14.21-14.31l93.51-5.11c7.66-.42,13.85,5.22,13.84,12.6Z" transform="translate(-518.75 -417.58)"/><path class="cls-68" d="M2992.4,2713.88a14.33,14.33,0,0,1-13.42,13.95l-90.31,5.55c-7.57.46-13.7-5.11-13.69-12.46l.06-33.54c0-7.35,6.17-13.64,13.74-14.05l90.33-4.94a12.39,12.39,0,0,1,13.37,12.4Z" transform="translate(-518.75 -417.58)"/><path class="cls-69" d="M3138.52,2705.13a14,14,0,0,1-13,13.69l-87.3,5.37a12.2,12.2,0,0,1-13.22-12.26l.08-33a14.12,14.12,0,0,1,13.29-13.8l87.32-4.77a12.06,12.06,0,0,1,12.91,12.2Z" transform="translate(-518.75 -417.58)"/><path class="cls-70" d="M2690,2839.38c0,7.49-6.42,14-14.33,14.61l-96.67,7.09c-8.1.6-14.68-5.08-14.67-12.67v-34.68c0-7.6,6.58-14.2,14.69-14.74l96.69-6.43c7.92-.53,14.32,5.12,14.31,12.61Z" transform="translate(-518.75 -417.58)"/><path class="cls-71" d="M2841.05,2828.54c0,7.36-6.21,13.79-13.87,14.35l-93.44,6.85c-7.83.57-14.18-5-14.17-12.48l0-34.1c0-7.47,6.38-13.94,14.21-14.46l93.47-6.22c7.65-.51,13.84,5.05,13.83,12.42Z" transform="translate(-518.75 -417.58)"/><path class="cls-72" d="M2992.16,2817.68a14.53,14.53,0,0,1-13.41,14.1l-90.27,6.61c-7.57.56-13.7-4.94-13.68-12.28l.06-33.51c0-7.34,6.16-13.7,13.72-14.2l90.3-6a12.21,12.21,0,0,1,13.36,12.23Z" transform="translate(-518.75 -417.58)"/><path class="cls-73" d="M3138.22,2807.19a14.16,14.16,0,0,1-13,13.84l-87.27,6.4a12,12,0,0,1-13.21-12.09l.08-32.94a14.32,14.32,0,0,1,13.28-14l87.28-5.81a11.89,11.89,0,0,1,12.91,12Z" transform="translate(-518.75 -417.58)"/><path class="cls-74" d="M2689.93,2944.1c0,7.49-6.42,14.1-14.33,14.77l-96.63,8.2c-8.09.69-14.67-4.91-14.66-12.49v-34.65c0-7.59,6.58-14.26,14.68-14.89l96.65-7.55c7.91-.62,14.31,5,14.31,12.44Z" transform="translate(-518.75 -417.58)"/><path class="cls-75" d="M2840.89,2931.51c0,7.36-6.22,13.85-13.87,14.5l-93.4,7.93c-7.82.67-14.17-4.84-14.16-12.3l0-34.06c0-7.47,6.37-14,14.2-14.62l93.43-7.3c7.65-.6,13.83,4.88,13.82,12.25Z" transform="translate(-518.75 -417.58)"/><path class="cls-76" d="M2991.93,2918.92a14.72,14.72,0,0,1-13.41,14.23l-90.23,7.66c-7.56.64-13.69-4.78-13.67-12.11l.05-33.48c0-7.33,6.17-13.76,13.73-14.35l90.26-7a12,12,0,0,1,13.35,12.06Z" transform="translate(-518.75 -417.58)"/><path class="cls-77" d="M2689.82,3056.38c0,7.47-6.41,14.15-14.32,14.92l-96.58,9.4c-8.09.79-14.66-4.72-14.65-12.3v-34.61c0-7.58,6.58-14.32,14.67-15.06l96.6-8.74c7.91-.72,14.31,4.77,14.3,12.24Z" transform="translate(-518.75 -417.58)"/><path class="cls-78" d="M2840.71,3041.92c0,7.35-6.21,13.91-13.86,14.66l-93.35,9.08c-7.83.76-14.17-4.66-14.16-12.11l0-34c0-7.46,6.37-14.08,14.19-14.78l93.39-8.46c7.65-.69,13.83,4.71,13.81,12.07Z" transform="translate(-518.75 -417.58)"/><path class="cls-79" d="M2991.68,3027.46c0,7.22-6,13.66-13.4,14.38l-90.19,8.78c-7.56.73-13.68-4.61-13.67-11.93l.06-33.45c0-7.32,6.16-13.82,13.72-14.5l90.21-8.17c7.4-.67,13.37,4.65,13.35,11.88Z" transform="translate(-518.75 -417.58)"/><path class="cls-80" d="M3124.86,2862.4l-87.25,6.82c-7.31.57-13,8.84-13,16.05l0,18.54,0,15.48-.17,69.89,0,20.56,0,13.43c0,7.21,5.63,13.65,12.93,12.94l87.2-8.48c7.14-.7,13.21-8.19,13.23-15.3l0-13.26.06-20.29.2-69,0-15.28.05-18.3C3138,2869.1,3132,2861.84,3124.86,2862.4Z" transform="translate(-518.75 -417.58)"/><path class="cls-81" d="M2333,1653.67v376.15c0,40.45-25.16,77.9-68,108.49a302,302,0,0,1-33.75,20.77c-66.62,35.52-160.47,57.63-264.39,57.63s-197.77-22.11-264.39-57.63c-63-33.57-101.72-79.09-101.72-129.26V1653.67Z" transform="translate(-518.75 -417.58)"/><path class="cls-82" d="M2265.07,2138.31a302,302,0,0,1-33.75,20.77c-66.62,35.52-160.47,57.63-264.39,57.63s-197.77-22.11-264.39-57.63c-63-33.57-101.72-79.09-101.72-129.26V1835.53c50.93,22.69,124.19,67.13,137.67,138.94,21.1,112.37,175.52,150.43,329.06,125C2135.19,2088.32,2206,2105.9,2265.07,2138.31Z" transform="translate(-518.75 -417.58)"/><polygon class="cls-83" points="2005.91 1272.34 1456.72 1001.12 907.52 1272.34 886.33 1272.34 886.33 1281.49 886.33 1281.49 1457.24 1563.59 2028.15 1281.49 2028.15 1281.49 2028.15 1272.34 2005.91 1272.34"/><polygon class="cls-84" points="1456.72 988.52 885.51 1270.62 1456.72 1552.71 2027.93 1270.62 1456.72 988.52"/><path class="cls-85" d="M2543.28,2079.85a7.31,7.31,0,0,1-7.25-7.59V1702.49c0-8.37-6.07-16.2-14.43-16.2H1975.47a7.25,7.25,0,1,1,0-14.49H2521.6c16.73,0,28.93,14,28.93,30.69v369.77A7.31,7.31,0,0,1,2543.28,2079.85Z" transform="translate(-518.75 -417.58)"/><path class="cls-86" d="M2562.5,2012.65l-6.46-11.49a13.65,13.65,0,0,0-24,.39l-5.44,12c-1.51,2.89-1.47,6.11-1.47,9.37v100.59c0,2.16,8.42,3.91,19.94,3.91s19.94-1.75,19.94-3.91V2022.58A20,20,0,0,0,2562.5,2012.65Z" transform="translate(-518.75 -417.58)"/></g></g></svg>