<?xml version="1.0" encoding="UTF-8" standalone="no"?>
<!-- Created with Inkscape (http://www.inkscape.org/) -->

<svg
   version="1.1"
   id="svg9"
   width="839"
   height="234"
   viewBox="0 0 839 234"
   sodipodi:docname="letras.svg"
   inkscape:version="1.1.1 (3bf5ae0d25, 2021-09-20)"
   xmlns:inkscape="http://www.inkscape.org/namespaces/inkscape"
   xmlns:sodipodi="http://sodipodi.sourceforge.net/DTD/sodipodi-0.dtd"
   xmlns="http://www.w3.org/2000/svg"
   xmlns:svg="http://www.w3.org/2000/svg">
  <defs
     id="defs13" />
  <sodipodi:namedview
     id="namedview11"
     pagecolor="#ffffff"
     bordercolor="#111111"
     borderopacity="1"
     inkscape:pageshadow="0"
     inkscape:pageopacity="0"
     inkscape:pagecheckerboard="1"
     showgrid="false"
     inkscape:zoom="1.8743808"
     inkscape:cx="319.03869"
     inkscape:cy="35.478383"
     inkscape:window-width="1280"
     inkscape:window-height="737"
     inkscape:window-x="-8"
     inkscape:window-y="-8"
     inkscape:window-maximized="1"
     inkscape:current-layer="g15" />
  <g
     inkscape:groupmode="layer"
     inkscape:label="Image"
     id="g15">
    <g
       id="g243"
       transform="translate(-2.5179856e-7,3.0179857)">
      <path
         style="fill:#1a6cc0"
         d="M 10.25,194.02693 C 6.2674217,192.21917 6,191.84302 6,188.04889 6,184.39674 6.2449686,184 8.5,184 c 1.778988,0 2.5,0.5415 2.5,1.87756 0,2.39472 1.886727,3.94979 5.723139,4.71707 4.348696,0.86974 7.473163,-1.07034 7.086793,-4.40041 C 23.544487,183.90638 22.49524,183.12417 16.5,180.74468 8.4693673,177.55736 6,175.14289 6,170.47811 6,165.35376 10.592211,162 17.608844,162 c 3.000466,0 7.01594,0.65204 8.923275,1.44897 C 29.693798,164.77001 30,165.26178 30,169.01852 c 0,3.69607 -0.230746,4.08766 -2.239784,3.80103 -1.295974,-0.1849 -2.398182,-1.16232 -2.615683,-2.31955 -0.503334,-2.67804 -1.933879,-3.46642 -6.323104,-3.48469 C 15.467666,167.00135 12,168.98449 12,170.91644 c 0,1.5663 3.638103,3.87155 8.72048,5.52564 3.156796,1.0274 6.220413,2.8874 7.75,4.70521 8.088207,9.61228 -5.014297,18.87415 -18.22048,12.87964 z m 27.75,0.0897 c 0,-1.04236 0.893085,-2.11691 2,-2.40638 1.860138,-0.48644 2,-1.36401 2,-12.54924 C 42,168.01303 41.853943,167.08842 40,166.5 38.9,166.15087 38,164.99555 38,163.93261 38,162.20652 38.748027,162 45,162 c 6.369383,0 7,0.183 7,2.03138 0,1.11727 -0.675,2.29041 -1.5,2.60699 -1.217291,0.46712 -1.5,2.82303 -1.5,12.5 0,9.67698 0.282709,12.03289 1.5,12.5 0.825,0.31659 1.5,1.42746 1.5,2.46862 C 52,195.78405 51.201458,196 45,196 c -6.188837,0 -7,-0.21825 -7,-1.88337 z m 27.25,-0.0897 C 61.267422,192.21917 61,191.84302 61,188.04889 61,184.39674 61.244969,184 63.5,184 c 1.778988,0 2.5,0.5415 2.5,1.87756 0,2.39472 1.886727,3.94979 5.723139,4.71707 4.348696,0.86974 7.473163,-1.07034 7.086793,-4.40041 C 78.544487,183.90638 77.49524,183.12417 71.5,180.74468 63.469367,177.55736 61,175.14289 61,170.47811 61,165.35376 65.592211,162 72.608844,162 c 3.000466,0 7.01594,0.65204 8.923275,1.44897 C 84.693798,164.77001 85,165.26178 85,169.01852 c 0,3.69607 -0.230746,4.08766 -2.239784,3.80103 -1.295974,-0.1849 -2.398182,-1.16232 -2.615683,-2.31955 -0.503334,-2.67804 -1.933879,-3.46642 -6.323104,-3.48469 C 70.467666,167.00135 67,168.98449 67,170.91644 c 0,1.5663 3.638103,3.87155 8.72048,5.52564 3.156796,1.0274 6.220413,2.8874 7.75,4.70521 8.088207,9.61228 -5.014297,18.87415 -18.22048,12.87964 z m 35.75,0.0897 c 0,-1.04236 0.89308,-2.11691 2,-2.40638 1.86092,-0.48664 2,-1.36401 2,-12.61663 V 167 h -3.5 c -2.833333,0 -3.5,0.38095 -3.5,2 0,1.46667 -0.666667,2 -2.5,2 -2.296296,0 -2.5,-0.36667 -2.5,-4.5 V 162 h 15 15 v 4.5 c 0,4.13333 -0.2037,4.5 -2.5,4.5 -1.83333,0 -2.5,-0.53333 -2.5,-2 0,-1.61905 -0.66667,-2 -3.5,-2 H 111 v 11.93261 c 0,11.05436 0.1472,11.97934 2,12.56739 1.1,0.34913 2,1.50445 2,2.56739 0,1.72609 -0.74803,1.93261 -7,1.93261 -6.18884,0 -7,-0.21825 -7,-1.88337 z m 29,-0.0492 c 0,-1.06294 0.9,-2.21826 2,-2.56739 1.85196,-0.58779 2,-1.51303 2,-12.5 0,-10.98697 -0.14804,-11.91221 -2,-12.5 -1.1,-0.34913 -2,-1.50445 -2,-2.56739 C 130,162.1179 130.82358,162 143.5,162 H 157 v 4.5 c 0,4.13333 -0.2037,4.5 -2.5,4.5 -1.83333,0 -2.5,-0.53333 -2.5,-2 0,-1.75758 -0.66667,-2 -5.5,-2 H 141 v 4.5 4.5 h 5.5 c 5.2,0 5.5,0.13636 5.5,2.5 0,2.36364 -0.3,2.5 -5.5,2.5 H 141 v 5 5 h 5.5 c 4.83333,0 5.5,-0.24242 5.5,-2 0,-1.46667 0.66667,-2 2.5,-2 2.2963,0 2.5,0.36667 2.5,4.5 v 4.5 h -13.5 c -12.67642,0 -13.5,-0.1179 -13.5,-1.93261 z m 36,0.0396 c 0,-1.04116 0.675,-2.15203 1.5,-2.46862 1.21729,-0.46711 1.5,-2.82302 1.5,-12.5 0,-9.67697 -0.28271,-12.03288 -1.5,-12.5 -0.825,-0.31658 -1.5,-1.5112 -1.5,-2.6547 0,-1.91191 0.49339,-2.05516 6.13553,-1.78139 l 6.13554,0.29772 4.10953,11.75 c 2.26025,6.4625 4.33897,11.75 4.6194,11.75 0.28043,0 2.35915,-5.2875 4.6194,-11.75 l 4.10953,-11.75 6.13554,-0.29772 C 207.50661,161.92855 208,162.0718 208,163.98371 c 0,1.1435 -0.675,2.33812 -1.5,2.6547 -1.21729,0.46712 -1.5,2.82303 -1.5,12.5 0,9.67698 0.28271,12.03289 1.5,12.5 0.825,0.31659 1.5,1.42746 1.5,2.46862 0,1.67706 -0.79854,1.89301 -7,1.89301 -6.18884,0 -7,-0.21825 -7,-1.88337 0,-1.04236 0.89308,-2.11691 2,-2.40638 1.76928,-0.46268 2.00158,-1.37017 2.01365,-7.86663 0.008,-4.03899 0.29896,-8.46862 0.64765,-9.84362 1.4381,-5.67078 -1.30409,-0.22911 -5.1753,10.26997 -3.65884,9.92313 -4.41276,11.23003 -6.47834,11.23003 -2.06651,0 -2.81244,-1.29616 -6.43149,-11.17551 -2.25162,-6.14653 -4.31488,-11.39859 -4.58502,-11.67124 -0.27013,-0.27265 -0.34659,3.79434 -0.1699,9.03776 0.28395,8.42629 0.54526,9.59207 2.25,10.03787 1.06081,0.27741 1.92875,1.3519 1.92875,2.38775 0,1.66512 -0.81116,1.88337 -7,1.88337 -6.20146,0 -7,-0.21595 -7,-1.89301 z m 49,0.25325 c 0,-0.90186 0.65641,-2.13936 1.4587,-2.75 0.80228,-0.61063 3.65759,-7.41024 6.34514,-15.11024 l 4.88644,-14 3.51566,-0.30207 3.51566,-0.30206 4.8892,14.2289 c 2.68906,7.82589 5.4517,14.79218 6.1392,15.48064 0.6875,0.68845 1.25,1.95888 1.25,2.82316 0,1.2381 -1.16667,1.57143 -5.5,1.57143 -4.75362,0 -5.5,-0.2601 -5.5,-1.91667 0,-1.05416 0.50971,-2.08657 1.1327,-2.29423 0.68593,-0.22864 0.85656,-1.24756 0.43261,-2.58333 C 236.94709,187.25795 236.17144,187 230.93261,187 227.66968,187 225,187.4132 225,187.91821 c 0,0.50502 -0.27314,1.63002 -0.60699,2.5 -0.39831,1.03799 -0.0545,1.58179 1,1.58179 0.94032,0 1.60699,0.82971 1.60699,2 0,1.77778 -0.66667,2 -6,2 -4.89395,0 -6,-0.30228 -6,-1.63976 z M 234.9225,180.75 c -0.0426,-0.6875 -0.86616,-3.4916 -1.83008,-6.23133 l -1.75257,-4.98133 -2.10435,6.23133 L 227.13115,182 h 3.93442 c 2.52221,0 3.90661,-0.44867 3.85693,-1.25 z m 44.14858,13.56259 c -5.3816,-2.84482 -7.41925,-6.41672 -7.89151,-13.83346 -0.49296,-7.74174 0.78972,-11.36697 5.47845,-15.48373 2.93898,-2.58046 4.20328,-2.99518 9.12678,-2.99385 3.43706,9.4e-4 7.11034,0.69851 9.2152,1.75 2.94039,1.4689 3.54962,2.34803 3.81037,5.49845 0.28251,3.41351 0.0867,3.75 -2.18262,3.75 -1.71059,0 -2.71334,-0.70613 -3.19514,-2.25 -0.9268,-2.96978 -2.21805,-3.71627 -6.4601,-3.73469 -4.80387,-0.0208 -7.70432,2.27498 -9.01269,7.13392 -2.74313,10.1872 3.12815,18.55141 11.54018,16.44013 1.95052,-0.48955 2.5,-1.26736 2.5,-3.53886 0,-2.25788 -0.50506,-2.98313 -2.25,-3.23095 -1.44596,-0.20536 -2.36419,-1.12359 -2.56955,-2.56955 -0.30127,-2.1213 0.0276,-2.25 5.75,-2.25 H 299 v 6.47695 c 0,5.7802 -0.26509,6.65064 -2.46425,8.09158 -3.85256,2.5243 -13.33288,2.92819 -17.46467,0.74406 z M 307,194.06739 c 0,-1.06294 0.9,-2.21826 2,-2.56739 1.85196,-0.58779 2,-1.51303 2,-12.5 0,-10.98697 -0.14804,-11.91221 -2,-12.5 -1.1,-0.34913 -2,-1.50445 -2,-2.56739 C 307,162.1179 307.82358,162 320.5,162 H 334 v 4.5 c 0,4.13333 -0.2037,4.5 -2.5,4.5 -1.83333,0 -2.5,-0.53333 -2.5,-2 0,-1.75758 -0.66667,-2 -5.5,-2 H 317 l -0.0846,4.26422 L 317,176 h 6.5 c 5.2,0 5.5,0.13636 5.5,2.5 0,2.36364 -0.3,2.5 -5.5,2.5 H 317 l -0.0846,5.09431 L 317,191 h 6.5 c 4.83333,0 5.5,-0.24242 5.5,-2 0,-1.46667 0.66667,-2 2.5,-2 2.2963,0 2.5,0.36667 2.5,4.5 v 4.5 h -13.5 c -12.67642,0 -13.5,-0.1179 -13.5,-1.93261 z m 42.64255,0.9044 C 345.22562,193.64816 343,191.09277 343,187.34501 343,184.31183 343.27347,184 345.93358,184 c 2.44766,0 2.98599,0.45023 3.25,2.71817 0.24221,2.08066 1.06286,2.93094 3.49901,3.62533 5.94435,1.69436 10.21561,-0.93815 8.79327,-5.41956 -0.32493,-1.02376 -2.58923,-2.46737 -5.27268,-3.36161 -10.45837,-3.48519 -14.47966,-8.06642 -12.10748,-13.79336 0.6523,-1.57481 2.45028,-3.51707 3.99549,-4.31613 3.73191,-1.92984 12.27708,-1.84645 16.50768,0.1611 3.00782,1.42731 3.40113,2.06333 3.40113,5.5 0,3.18306 -0.35193,3.88606 -1.94543,3.88606 -1.13756,0 -2.49028,-1.14199 -3.25747,-2.75 -1.08626,-2.27678 -2.05481,-2.80354 -5.62847,-3.06111 -7.70123,-0.55507 -10.0846,4.61777 -3.41863,7.41974 2.0625,0.86695 5.77395,2.54717 8.24766,3.73382 14.23932,6.83068 3.44201,21.36331 -12.35511,16.62934 z M 384,194.06739 c 0,-1.06294 0.9,-2.21826 2,-2.56739 1.8528,-0.58805 2,-1.51303 2,-12.56739 V 167 h -3.5 c -2.83333,0 -3.5,0.38095 -3.5,2 0,1.46667 -0.66667,2 -2.5,2 -2.2963,0 -2.5,-0.36667 -2.5,-4.5 V 162 h 15 15 v 4.5 c 0,4.13333 -0.2037,4.5 -2.5,4.5 -1.83333,0 -2.5,-0.53333 -2.5,-2 0,-1.61905 -0.66667,-2 -3.5,-2 H 394 v 12.09362 c 0,11.25262 0.13908,12.12999 2,12.61663 1.10692,0.28947 2,1.36402 2,2.40638 0,1.66512 -0.81116,1.88337 -7,1.88337 -6.25197,0 -7,-0.20652 -7,-1.93261 z m 39.02056,0.81657 C 416.94009,192.45793 413.8,187.0486 413.8,179 c 0,-6.60044 1.76304,-10.61309 6.36412,-14.48464 2.92469,-2.46097 3.83882,-2.68449 9.50361,-2.32378 4.91953,0.31325 6.84006,0.92707 8.92884,2.85376 8.31756,7.67207 6.86272,24.07543 -2.58097,29.10056 -3.77517,2.00883 -9.05805,2.30887 -12.99504,0.73806 z m 9.3648,-5.01368 c 3.19637,-1.45637 5.13384,-6.12432 5.04106,-12.1455 -0.10116,-6.56525 -2.82882,-10.12682 -8.05808,-10.52161 -5.27166,-0.39799 -8.21082,2.67122 -9.0086,9.40718 -1.20461,10.17105 4.64609,16.62227 12.02562,13.25993 z M 452,194.10699 c 0,-1.04116 1.34189,-2.21872 2.16689,-2.53531 1.21862,-0.46763 1.76675,-2.8384 1.76675,-12.63837 0,-9.79997 -1.21502,-12.10405 -2.43364,-12.57168 -0.825,-0.31659 -1.5,-1.42746 -1.5,-2.46862 0,-1.71762 0.83683,-1.89301 9.03212,-1.89301 9.81206,0 15.10551,1.52013 16.88739,4.8496 1.70809,3.1916 1.27665,7.95424 -0.91951,10.1504 -1.16202,1.16202 -2.38088,2.11731 -2.19221,2.71399 0.1353,0.42786 1.35073,0.44454 2.17811,1.27194 1.09226,1.09228 2.0763,5.13601 2.43129,7.35594 0.35498,2.21992 1.23638,2.94404 1.71413,3.23931 0.47776,0.29527 0.86865,1.4103 0.86865,2.47784 C 482,195.5255 481.3045,196 479.15499,196 475.39317,196 473,193.17823 473,188.74269 473,184.0645 470.83485,182 465.92857,182 H 462 v 4.43261 c 0,3.55436 0.39627,4.55839 2,5.06739 1.1,0.34913 2,1.50445 2,2.56739 0,1.72609 -0.74803,1.93261 -7,1.93261 -6.20146,0 -7,-0.21595 -7,-1.89301 z M 470.77749,175.4433 C 471.99987,174.58711 473,173.23711 473,172.4433 473,169.78899 469.15722,167 465.5,167 H 462 v 5 c 0,4.98296 0.0112,5 3.27749,5 1.80263,0 4.27763,-0.70052 5.5,-1.5567 z M 505,194 c 0,-1.1 0.61422,-2 1.36493,-2 0.86002,0 3.30912,-5.56837 6.62073,-15.05317 l 5.2558,-15.05317 3.50987,0.30317 3.50988,0.30317 5.09598,14.75 c 2.9747,8.61009 5.62606,14.75 6.3694,14.75 0.70037,0 1.27341,0.9 1.27341,2 0,1.77778 -0.66667,2 -6,2 -5.33333,0 -5.06636,-0.15553 -5.06636,-1.93331 0,-1.1 -0.1189,-1.53318 0.46935,-1.53318 0.58825,0 1.12582,-1.94614 0.95007,-3.18364 -0.29084,-2.04783 -1.39219,-2.25 -6.85306,-2.25 -5.46087,0 -6.02871,0.6023 -6.31955,2.65013 -0.17575,1.2375 0.16175,2.25 0.75,2.25 0.58825,0 1.06955,0.9 1.06955,2 0,1.77778 -0.66667,2 -6,2 -5.33333,0 -6,-0.22222 -6,-2 z m 20.40013,-13.38855 c -0.41236,-0.59876 -1.15224,-3.4625 -2.07149,-6.16035 l -1.67136,-4.90518 -1.75114,4.97704 C 517.41721,181.59695 517.50313,182 521.5,182 c 2.23481,0 8.26271,4.94614 3.90013,-1.38855 z m 27.81805,13.72547 c -5.26987,-2.59742 -7.62297,-6.80901 -8.05261,-14.41258 -0.639,-11.30872 3.96885,-17.09161 14.11674,-17.71661 7.88275,-0.48549 13.02662,2.39386 13.53105,7.57419 0.29134,2.99196 0.0981,3.21808 -2.75,3.21808 C 567.78012,173 567,172.54161 567,171.2 c 0,-0.99 -0.54,-2.34 -1.2,-3 -1.67796,-1.67796 -7.93026,-1.49749 -10.50097,0.3031 -4.70977,3.29885 -5.44363,14.81782 -1.23203,19.33845 4.01136,4.30568 11.85398,3.75092 12.94496,-0.91569 0.40455,-1.73042 1.36271,-2.51836 3.34228,-2.74853 2.65067,-0.30819 2.76104,-0.15118 2.46046,3.5 -0.28037,3.40566 -0.80145,4.06812 -4.77659,6.07267 -5.23697,2.64085 -10.24992,2.83938 -14.81993,0.58692 z M 580,194.36024 c 0,-0.90186 0.65641,-2.13936 1.4587,-2.75 0.80228,-0.61063 3.65759,-7.41024 6.34514,-15.11024 l 4.88644,-14 3.51566,-0.30207 3.51566,-0.30206 4.8892,14.2289 c 2.68906,7.82589 5.4517,14.79218 6.1392,15.48064 0.6875,0.68845 1.25,1.95888 1.25,2.82316 0,1.2381 -1.16667,1.57143 -5.5,1.57143 -4.75362,0 -5.5,-0.2601 -5.5,-1.91667 0,-1.05416 0.50971,-2.08657 1.1327,-2.29423 0.68593,-0.22864 0.85656,-1.24756 0.43261,-2.58333 C 601.94709,187.25795 601.17144,187 595.93261,187 592.66968,187 590,187.4132 590,187.91821 c 0,0.50502 -0.27314,1.63002 -0.60699,2.5 -0.39831,1.03799 -0.0545,1.58179 1,1.58179 0.94032,0 1.60699,0.82971 1.60699,2 0,1.77778 -0.66667,2 -6,2 -4.89395,0 -6,-0.30228 -6,-1.63976 z M 599.9225,180.75 c -0.0426,-0.6875 -0.86616,-3.4916 -1.83008,-6.23133 l -1.75257,-4.98133 -2.10435,6.23133 L 592.13115,182 h 3.93442 c 2.52221,0 3.90661,-0.44867 3.85693,-1.25 z M 619,194.06739 c 0,-1.06294 0.9,-2.21826 2,-2.56739 1.85196,-0.58779 2,-1.51303 2,-12.5 0,-10.98697 -0.14804,-11.91221 -2,-12.5 -1.1,-0.34913 -2,-1.50445 -2,-2.56739 0,-1.77826 0.7787,-1.93231 9.75,-1.92887 7.96443,0.003 10.34686,0.36765 13.00914,1.99086 5.14637,3.13778 7.23338,7.46722 7.23338,15.0054 0,7.53818 -2.08701,11.86762 -7.23338,15.0054 -2.66228,1.62321 -5.04471,1.98781 -13.00914,1.99086 -8.9713,0.003 -9.75,-0.15061 -9.75,-1.92887 z m 20.54545,-5.52194 C 641.68998,186.40093 642,185.19529 642,179 c 0,-6.19529 -0.31002,-7.40093 -2.45455,-9.54545 -1.68298,-1.68299 -3.56902,-2.45455 -6,-2.45455 H 630 v 12 12 h 3.54545 c 2.43098,0 4.31702,-0.77156 6,-2.45455 z M 657,194.06739 c 0,-1.06294 0.9,-2.21826 2,-2.56739 1.85196,-0.58779 2,-1.51303 2,-12.5 0,-10.98697 -0.14804,-11.91221 -2,-12.5 -1.1,-0.34913 -2,-1.50445 -2,-2.56739 C 657,162.1179 657.82358,162 670.5,162 H 684 v 4.5 c 0,4.13333 -0.2037,4.5 -2.5,4.5 -1.83333,0 -2.5,-0.53333 -2.5,-2 0,-1.75758 -0.66667,-2 -5.5,-2 H 667 l -0.067,4.63338 L 667,176 h 6.5 c 5.2,0 5.5,0.13636 5.5,2.5 0,2.36364 -0.3,2.5 -5.5,2.5 H 667 l -0.067,5.26675 L 667,191 h 6.5 c 4.83333,0 5.5,-0.24242 5.5,-2 0,-1.46667 0.66667,-2 2.5,-2 2.2963,0 2.5,0.36667 2.5,4.5 v 4.5 h -13.5 c -12.67642,0 -13.5,-0.1179 -13.5,-1.93261 z m 35,0.0492 c 0,-1.04236 0.89308,-2.11691 2,-2.40638 1.86014,-0.48644 2,-1.36401 2,-12.54924 0,-11.14798 0.32076,-12.13928 -1.53318,-12.7277 -1.1,-0.34913 -1.46649,-1.43776 -1.46649,-2.5007 0,-1.7077 -0.25968,-1.93257 5.36519,-1.93257 h 6.36553 l 4.46538,12.68016 4.46538,12.68016 4.4191,-12.67598 4.41909,-12.67598 6.25,-0.004 c 5.51213,-0.004 6.25,0.22398 6.25,1.92843 0,1.06294 -0.9,2.21826 -2,2.56739 -1.85196,0.58779 -2,1.51303 -2,12.5 0,10.98697 0.14804,11.91221 2,12.5 1.1,0.34913 2,1.50445 2,2.56739 0,1.72609 -0.74803,1.93261 -7,1.93261 -6.18884,0 -7,-0.21825 -7,-1.88337 0,-1.04236 0.89308,-2.11691 2,-2.40638 1.81503,-0.47464 2,-1.36401 2,-9.61663 0,-5.00167 -0.1647,-9.0938 -0.36601,-9.0938 -0.2013,0 -1.38313,2.8125 -2.62628,6.25 -6.06333,16.76604 -6.05531,16.75 -8.37474,16.75 -1.9342,0 -2.7876,-1.5648 -6.56225,-12.03257 -2.38641,-6.61791 -4.54035,-11.83114 -4.78654,-11.58495 -0.24619,0.24619 -0.12486,4.57337 0.26961,9.61596 0.49237,6.29402 1.145,9.33248 2.08172,9.69193 0.75047,0.28799 1.36449,1.37546 1.36449,2.41662 0,1.67706 -0.79854,1.89301 -7,1.89301 -6.18884,0 -7,-0.21825 -7,-1.88337 z m 50,0 c 0,-1.04236 0.89308,-2.11691 2,-2.40638 1.86014,-0.48644 2,-1.36401 2,-12.54924 0,-11.14798 -0.14606,-12.07259 -2,-12.66101 -1.1,-0.34913 -2,-1.50445 -2,-2.56739 0,-1.72609 0.74803,-1.93261 7,-1.93261 6.36938,0 7,0.183 7,2.03138 0,1.11727 -1.80871,2.55716 -2.63371,2.87374 -1.21729,0.46712 -0.76642,2.55628 -0.76642,12.23325 0,9.67698 -0.51756,11.49938 0.69973,11.96649 0.825,0.31659 2.7004,1.96097 2.7004,3.00213 0,1.67706 -0.79854,1.89301 -7,1.89301 -6.18884,0 -7,-0.21825 -7,-1.88337 z m 30.21818,0.22029 c -5.26987,-2.59742 -7.62297,-6.80901 -8.05261,-14.41258 -0.639,-11.30872 3.96885,-17.09161 14.11674,-17.71661 7.88275,-0.48549 13.02662,2.39386 13.53105,7.57419 0.29134,2.99196 0.0981,3.21808 -2.75,3.21808 C 786.78012,173 786,172.54161 786,171.2 c 0,-0.99 -0.54,-2.34 -1.2,-3 -1.67796,-1.67796 -7.93026,-1.49749 -10.50097,0.3031 -4.70977,3.29885 -5.44363,14.81782 -1.23203,19.33845 4.01136,4.30568 11.85398,3.75092 12.94496,-0.91569 0.40455,-1.73042 1.36271,-2.51836 3.34228,-2.74853 2.65067,-0.30819 2.76104,-0.15118 2.46046,3.5 -0.28037,3.40566 -0.80145,4.06812 -4.77659,6.07267 -5.23697,2.64085 -10.24992,2.83938 -14.81993,0.58692 z m 36.80238,0.54704 C 802.94009,192.45793 799.8,187.0486 799.8,179 c 0,-6.60044 1.76304,-10.61309 6.36412,-14.48464 2.92469,-2.46097 3.83882,-2.68449 9.50361,-2.32378 4.91953,0.31325 6.84006,0.92707 8.92884,2.85376 8.31756,7.67207 6.86272,24.07543 -2.58097,29.10056 -3.77517,2.00883 -9.05805,2.30887 -12.99504,0.73806 z m 9.3648,-5.01368 c 3.19637,-1.45637 5.13384,-6.12432 5.04106,-12.1455 -0.10116,-6.56525 -2.82882,-10.12682 -8.05808,-10.52161 -5.27166,-0.39799 -8.21082,2.67122 -9.0086,9.40718 -1.20461,10.17105 4.64609,16.62227 12.02562,13.25993 z M 669.15812,156 c 1.72941,-2.33915 2.98877,-3 5.71703,-3 h 3.49903 L 675.5,156 c -1.87377,1.9558 -3.86368,3 -5.71703,3 h -2.84284 z M 27.392652,110.6538 C 21.458712,109.13974 14.466185,105.70871 11.25,102.73308 9.2438715,100.877 9,99.694779 9,91.825686 V 83 h 5.954687 5.954687 l 0.577244,3.75 c 1.496306,9.720577 3.669736,11.436789 15.289249,12.072897 8.560874,0.468663 12.6998,-0.908269 14.771291,-4.914091 C 55.444677,86.371836 51.142049,80.848981 38,76.519666 16.249281,69.354443 8.7347074,62.823641 8.6361647,51 8.5759494,43.77507 11.140679,38.645986 16.916756,34.440028 28.663739,25.886246 49.325597,26.110524 63.25,34.942962 L 68,37.955952 V 46.477976 55 h -5.980948 c -5.707009,0 -6.009476,-0.125955 -6.603803,-2.75 -1.968988,-8.693374 -1.993081,-8.737149 -5.472697,-9.943558 -1.893404,-0.656457 -6.502399,-1.218957 -10.242212,-1.25 -7.289613,-0.06051 -11.905569,1.589997 -13.670696,4.888167 -1.63153,3.048542 -1.229917,8.564171 0.754342,10.359901 2.23182,2.019769 11.50479,6.157617 17.290855,7.715642 11.813957,3.181169 22.047719,11.007569 24.03273,18.379337 1.666076,6.187333 0.676243,13.817698 -2.394391,18.457741 -4.16056,6.28703 -13.274031,10.29446 -24.436236,10.74526 -5.151299,0.20804 -10.886725,-0.18385 -13.884292,-0.94869 z m 74.536698,-0.0212 C 81.247774,105.05628 70.708147,82.764646 76.569267,56.995273 78.36538,49.098366 83.948891,39.66624 89.197168,35.663184 101.97742,25.915208 122.40324,25.644057 136.92452,35.029609 L 143,38.956384 v 8.569525 8.569526 L 136.76787,55.797717 130.53575,55.5 129.50841,50 c -1.39914,-7.490497 -4.5854,-9.224825 -16.16635,-8.799565 -7.35298,0.270007 -8.53703,0.599864 -12,3.343004 -2.150728,1.703674 -5.137944,5.618094 -6.785817,8.892076 -2.629292,5.223858 -2.949765,6.874999 -3,15.456561 -0.07026,12.002532 0.696239,15.636489 4.513841,21.400017 C 100.21438,96.54884 105.47779,99 114.76867,99 c 3.92547,0 8.2834,-0.522232 9.68428,-1.160515 C 126.8157,96.762943 127,96.191179 127,89.937672 v -6.741298 l -6.04681,-0.701807 -6.04681,-0.701807 0.29681,-5.64638 L 115.5,70.5 129.25,70.22178 143,69.943561 v 15.873232 c 0,17.908837 0.34389,17.041247 -8.5,21.444827 -9.26919,4.61535 -22.77237,6.01291 -32.57065,3.37101 z M 308.5,110.65821 c -2.75,-0.71478 -6.41097,-2.04019 -8.1355,-2.94537 -4.45456,-2.33813 -10.80554,-9.903819 -12.18848,-14.519683 C 287.41624,90.657249 287,80.766143 287,65.247524 V 41.227088 L 282.5,40.552271 278,39.877454 V 34.438727 29 h 17 17 v 5.438727 5.438727 l -4.5,0.674817 -4.5,0.674817 0.022,23.136456 c 0.0252,26.559726 0.75561,29.879429 7.25231,32.962317 4.57439,2.170691 13.87707,2.170691 18.45146,0 6.4967,-3.082888 7.2271,-6.402591 7.25231,-32.962317 L 336,41.227088 331.5,40.552271 327,39.877454 V 34.438727 29 h 17 17 v 5.438727 5.438727 l -4.5,0.674817 -4.5,0.674817 v 24.020436 c 0,15.936369 -0.40928,25.405682 -1.21612,28.136456 -1.69131,5.724366 -9.86259,13.75793 -16.29237,16.01779 -6.52171,2.29218 -19.57831,2.92333 -25.99151,1.25644 z m 144.97909,-0.45963 c -2.7615,-0.95488 -6.43538,-2.74333 -8.16417,-3.97434 C 441.31068,103.37297 438,96.565998 438,91.184276 V 87 h 7.46146 7.46145 l 1.06265,3.946382 c 0.58446,2.17051 2.23749,4.87051 3.6734,6 3.20484,2.52092 9.92215,2.735748 13.22417,0.422925 C 475.47172,94.15533 476,90.823094 476,65.093392 V 41.122546 L 471.5,40.447729 467,39.772912 V 34.386456 29 h 17 17 v 5.386456 5.386456 l -4.5,0.674817 -4.5,0.674817 -0.01,25.688727 c -0.009,24.889946 -0.0832,25.846403 -2.371,30.75959 -5.64572,12.124467 -21.53723,17.677117 -36.14014,12.627717 z M 150,106.06336 c 0,-4.79241 0.091,-4.9458 3.11634,-5.25 L 156.23268,100.5 166.11037,72 c 5.43274,-15.675 11.05104,-31.7625 12.48512,-35.75 L 181.20291,29 h 8.28072 8.28071 l 7.82417,22.75 c 17.61314,51.21295 16.61193,48.71477 19.66462,49.06642 2.58189,0.29742 2.74687,0.61274 2.74687,5.25 V 111 H 214.5 201 v -5 c 0,-4.28266 0.27847,-5 1.94098,-5 2.91146,0 3.13934,-1.173847 1.32768,-6.839037 L 202.61825,89 H 189.40313 176.188 l -1.594,4.678139 C 172.44102,99.996795 172.56515,101 175.5,101 c 2.33333,0 2.5,0.33333 2.5,5 v 5 h -14 -14 z m 48,-31.34268 c 0,-0.703626 -1.95122,-7.113182 -4.33604,-14.243458 l -4.33605,-12.964138 -4.31099,12.993458 C 182.64587,67.652944 180.49895,74.0625 180.24597,74.75 179.89929,75.692165 182.02878,76 188.89301,76 195.62325,76 198,75.666122 198,74.72068 Z m 168,31.29114 v -4.98818 l 4,-0.63963 4,-0.639626 V 70 40.255616 l -4,-0.639625 -4,-0.639626 V 33.988182 29 h 32 32 v 11 11 h -5.88337 c -6.28408,0 -7.06652,-0.74356 -7.10298,-6.75 C 417.0002,42.032752 416.81077,42 404,42 H 391 V 52 62 H 404.5 418 V 68.5 75 H 404.5 391 V 86.5 98 h 12.88337 c 12.5152,0 12.9006,-0.0643 13.48634,-2.25 0.33164,-1.2375 0.60913,-3.2625 0.61664,-4.5 C 417.99898,89.168184 418.44849,89 424,89 h 6 v 11 11 h -32 -32 z m 140,0 v -4.98818 l 4,-0.63963 4,-0.639626 V 69.872192 40 h -2.41821 C 506.83785,40 506,39.083316 506,33.893011 V 29 h 16.5 16.5 v 4.988182 4.988183 l -4,0.639626 -4,0.639625 V 69.127808 98 h 11.44521 11.44521 L 554.19521,93.25 554.5,88.5 560.75,88.202283 567,87.904565 V 99.452283 111 H 536.5 506 Z m 67,0 v -4.98818 l 4,-0.63963 4,-0.639626 V 70 40.255616 l -4,-0.639625 -4,-0.639626 V 33.988182 29 h 14.87586 14.87587 l 10.2591,30.031702 c 5.6425,16.517436 10.53587,29.759213 10.87413,29.42617 0.33827,-0.333042 5.18095,-13.734808 10.76151,-29.781701 L 644.79295,29.5 659.89647,29.223954 675,28.947908 v 4.967197 4.967197 l -4.25,0.840476 -4.25,0.840477 v 29.463899 29.463899 l 4.25,0.896557 4.25,0.89655 V 106.14208 111 h -17 -17 v -4.93873 -4.93872 l 4.37119,-0.6555 4.37119,-0.655505 0.69056,-22.655772 C 650.81275,64.695098 651.37662,53.6 651.68598,52.5 c 0.31628,-1.124591 0.17982,-1.637321 -0.31175,-1.171406 -0.48083,0.455727 -5.62472,13.955727 -11.43088,30 L 629.3867,110.5 l -5.50268,0.29421 -5.50267,0.29422 L 608.0629,82.294215 C 602.38775,66.457397 597.33026,52.825 596.82402,52 c -0.58212,-0.948673 -0.72628,1.624188 -0.39222,7 0.29052,4.675 0.81757,15.763838 1.17122,24.641863 l 0.64301,16.141862 3.87698,0.619955 L 606,101.02364 V 106.01182 111 H 589.5 573 Z M 238,75.5 V 69 H 253.5 269 V 75.5 82 H 253.5 238 Z"
         id="path247"
         sodipodi:nodetypes="sssssssssssssssssssssssssssssssssssssssssssssssssssscsssscccsssscssssscssssscsssscccssscccsssscsccsssssscssscssssssssscsssssssssscsscccsssssssssssssccsscccssssssssssssssssscssssssssscsssscccssscccsssscsssssssssssssssssssssscsssscccsssscssssssssssssssssssssssssssssssssscsssssssscsssssscccssssssssssssssscsssssssssssssssssssscccsssssssssssssssscccssssssssssscssssscccsssssssscsssscccssscccsssscssssssssccccccssssssssssssssssssssssssssssssssssssssssssssssssssssssssssssssscsscsssscccssssssscccssssssssssssssscccccssssssssscccccccsssssssscccccccccccsssscccccccccccsssscsscccssssccccccccccccsccsscsscccssscccssscccssscccssscssssccccccccccccccssscccccccccccssssccccccccccccssccccccccccccccccccccccccccccccccssscccccccccccccccccccsssscccssssccccccccccccccccc" />
      <path
         style="fill:#3f3f3f"
         d="M 12.968472,195.11469 C 7.5711108,193.35603 6,191.69771 6,187.75945 6,184.4434 6.2870223,184 8.4335777,184 c 1.9114373,0 2.5014683,0.59003 2.7500003,2.75 C 11.8296,192.36453 24,192.26376 24,186.64388 24,183.63879 22.799223,182.68834 16.342433,180.58265 6.5106002,177.3763 3.2935701,171.25794 8.3491433,165.38049 10.30932,163.10164 11.694547,162.57738 16.715155,162.21422 25.220757,161.59898 30,163.90129 30,168.61394 c 0,2.91929 0.731981,4.18632 -1.36343,4.18632 -1.759117,0 -3.585734,-1.42175 -3.817019,-3.05026 -0.276822,-1.94914 -1.000005,-2.28967 -5.408374,-2.54667 -3.588108,-0.20918 -5.455623,0.1453 -6.332618,1.20201 -1.865937,2.24832 -0.414555,5.22914 3.204695,6.58175 13.615578,5.08848 16.707848,8.54881 13.645582,15.26975 -0.58914,1.29302 -1.9735,2.91447 -3.076354,3.60321 -2.562204,1.60013 -10.59575,2.32608 -13.88401,1.25464 z m 25.231264,-1.14108 c 0,-1.04116 1.475264,-2.01865 2.300264,-2.33524 1.217291,-0.46711 1.5,-2.82302 1.5,-12.5 0,-9.67697 -0.282709,-12.03288 -1.5,-12.5 -0.825,-0.31658 -2.300264,-1.48972 -2.300264,-2.60699 0,-1.83349 1.433456,-2.03138 7.300264,-2.03138 5.710878,0 6.5,0.22982 6.5,1.89301 0,1.04116 -0.675,2.15203 -1.5,2.46862 C 49.277088,166.8309 49,169.2521 49,179.46862 49,189.94096 49.246466,192 50.5,192 c 0.833333,0 1.5,0.88889 1.5,2 0,1.79487 -0.666667,2 -6.5,2 -5.710878,0 -7.300264,-0.3632 -7.300264,-2.02639 z m 29.768736,1.14108 C 62.571111,193.35603 61,191.69771 61,187.75945 61,184.4434 61.287022,184 63.433578,184 c 1.911437,0 2.501468,0.59003 2.75,2.75 C 66.8296,192.36453 79,192.26376 79,186.64388 c 0,-3.00509 -1.200777,-3.95554 -7.657567,-6.06123 -9.831833,-3.20635 -13.048863,-9.32471 -7.99329,-15.20216 1.960177,-2.27885 3.345404,-2.80311 8.366012,-3.16627 C 80.220757,161.59898 85,163.90129 85,168.61394 85,171.53323 84.664962,172 82.569551,172 c -1.759117,0 -2.518715,-0.62149 -2.75,-2.25 -0.276822,-1.94914 -1.000005,-2.28967 -5.408374,-2.54667 -3.588108,-0.20918 -5.455623,0.1453 -6.332618,1.20201 -1.865937,2.24832 -0.414555,5.22914 3.204695,6.58175 13.615578,5.08848 16.707848,8.54881 13.645582,15.26975 -0.58914,1.29302 -1.9735,2.91447 -3.076354,3.60321 -2.562204,1.60013 -10.59575,2.32608 -13.88401,1.25464 z M 101,194.11663 c 0,-1.04236 0.89308,-2.11691 2,-2.40638 1.86092,-0.48664 2,-1.36401 2,-12.61663 V 167 h -3.5 c -2.833333,0 -3.5,0.38095 -3.5,2 0,1.46667 -0.666667,2 -2.5,2 -2.296296,0 -2.5,-0.36667 -2.5,-4.5 V 162 h 15 15 v 4.5 c 0,4.13333 -0.2037,4.5 -2.5,4.5 -1.83333,0 -2.5,-0.53333 -2.5,-2 0,-1.61905 -0.66667,-2 -3.5,-2 H 111 v 12.09362 c 0,11.25262 0.13908,12.12999 2,12.61663 1.10692,0.28947 2,1.36402 2,2.40638 0,1.66512 -0.81116,1.88337 -7,1.88337 -6.18884,0 -7,-0.21825 -7,-1.88337 z m 29.15119,-0.01 c 0,-1.04116 1.14656,-2.34065 1.97156,-2.65724 1.21862,-0.46763 1.87725,-2.64978 1.87725,-12.44975 0,-9.79997 -0.94156,-12.17074 -2.16018,-12.63837 -0.825,-0.31659 -1.68863,-1.7104 -1.68863,-2.75156 C 130.15119,161.8498 131.91158,162 144,162 h 13 v 4.5 c 0,4.13333 -0.2037,4.5 -2.5,4.5 -1.83333,0 -2.5,-0.53333 -2.5,-2 0,-1.75758 -0.66667,-2 -5.5,-2 H 141 v 4.5 4.5 h 5.5 c 5.2,0 5.5,0.13636 5.5,2.5 0,2.36364 -0.3,2.5 -5.5,2.5 H 141 v 5 5 h 5.5 c 4.83333,0 5.5,-0.24242 5.5,-2 0,-1.46667 0.66667,-2 2.5,-2 2.2963,0 2.5,0.36667 2.5,4.5 v 4.5 h -13 c -12.08842,0 -13.84881,-0.13274 -13.84881,-1.89301 z m 35.84881,0.01 c 0,-1.04236 0.89308,-2.11691 2,-2.40638 1.86014,-0.48644 0.86826,-1.36401 0.86826,-12.54924 0,-11.14798 0.98568,-12.07259 -0.86826,-12.66101 -1.1,-0.34913 -2,-1.50445 -2,-2.56739 C 166,162.2398 166.73557,162 171.92815,162 h 5.92815 l 1.94872,5.25 c 1.0718,2.8875 2.98514,8.48899 4.25186,12.44776 1.26673,3.95878 2.63707,6.99139 3.04521,6.73914 0.40815,-0.25224 1.73857,-3.49124 2.95651,-7.19776 1.21794,-3.70653 3.08534,-9.10164 4.14977,-11.98914 L 196.1437,162 h 5.92815 c 5.1498,0 5.92815,0.24855 5.92815,1.89301 0,1.04116 -0.675,2.15203 -1.5,2.46862 -1.22291,0.46927 -1.5,2.89047 -1.5,13.10699 0,10.47234 0.24647,12.53138 1.5,12.53138 0.83333,0 1.5,0.88889 1.5,2 0,1.79487 -0.66667,2 -6.5,2 -5.35733,0 -6.5,-0.28826 -6.5,-1.63976 0,-0.90186 0.62304,-2.13936 1.38453,-2.75 0.90423,-0.72509 1.6165,-4.40588 2.0532,-10.61024 0.41819,-5.94145 0.3166,-9.12542 -0.27121,-8.5 -0.51693,0.55 -2.73508,5.95 -4.92924,12 -3.46472,9.5534 -4.2849,11 -6.23667,11 -1.95528,0 -2.75822,-1.42945 -6.17887,-11 -4.29794,-12.02513 -6.49048,-15.63723 -5.46298,-9 0.34057,2.2 0.62418,6.62963 0.63023,9.84362 0.009,4.99757 0.30057,5.91934 2.01101,6.36663 1.10692,0.28947 2,1.36402 2,2.40638 0,1.66512 -0.81116,1.88337 -7,1.88337 -6.18884,0 -7,-0.21825 -7,-1.88337 z M 215,194 c 0,-1.1 0.57524,-2 1.2783,-2 0.71931,0 2.75576,-4.26359 4.65695,-9.75 7.36994,-21.26794 6.84491,-20.25 10.44457,-20.25 h 3.23612 l 4.83604,14.25 c 2.65981,7.8375 5.44623,14.74961 6.19202,15.36024 0.7458,0.61064 1.356,1.84814 1.356,2.75 0,1.32092 -1.06944,1.63976 -5.5,1.63976 -4.83333,0 -5.5,-0.24242 -5.5,-2 0,-1.1 0.4813,-2 1.06955,-2 0.58825,0 0.92575,-1.0125 0.75,-2.25 -0.28613,-2.01472 -0.9597,-2.28078 -6.44131,-2.54439 -5.65895,-0.27213 -6.16733,-0.12093 -6.72448,2 -0.3315,1.26192 -0.16421,2.44439 0.37176,2.62772 0.53596,0.18334 0.97448,1.19584 0.97448,2.25 0,1.65657 -0.74638,1.91667 -5.5,1.91667 -4.83333,0 -5.5,-0.24242 -5.5,-2 z m 19.9225,-13.25 c -0.0426,-0.6875 -0.89093,-3.5 -1.88511,-6.25 -1.16211,-3.21449 -2.02123,-4.46435 -2.40583,-3.5 C 229.66065,173.43451 227,181.2194 227,181.62573 c 0,0.20585 1.8,0.37427 4,0.37427 2.57467,0 3.97238,-0.44542 3.9225,-1.25 z m 44.38617,13.3032 c -10.53674,-4.78372 -11.40468,-23.10691 -1.41079,-29.78327 4.32036,-2.88618 12.13106,-3.07252 17.11772,-0.40838 2.86148,1.52876 3.53989,2.51202 3.79477,5.5 0.27611,3.23688 0.052,3.63845 -2.03077,3.63845 -1.68294,0 -2.65948,-0.84341 -3.4735,-3 -1.03371,-2.73862 -1.53597,-3 -5.76469,-3 -5.58766,0 -9.05351,2.88233 -10.08643,8.38827 -1.86029,9.91622 3.93934,17.23548 12.04502,15.20109 1.96723,-0.49375 2.5,-1.26272 2.5,-3.60841 C 292,184.66667 291.55271,184 290,184 c -1.46667,0 -2,-0.66667 -2,-2.5 0,-2.36364 0.3,-2.5 5.5,-2.5 h 5.5 v 6.54889 6.54889 l -4.25,1.92915 c -5.3731,2.43894 -10.10937,2.44699 -15.44133,0.0263 z M 307,194.11663 c 0,-1.04236 0.89308,-2.11691 2,-2.40638 1.86199,-0.48692 2,-1.36401 2,-12.71025 0,-11.34624 -0.13801,-12.22333 -2,-12.71025 -1.10692,-0.28947 -2,-1.36402 -2,-2.40638 C 307,162.13188 307.94534,162 320.5,162 H 334 v 4.5 c 0,4.13333 -0.2037,4.5 -2.5,4.5 -1.83333,0 -2.5,-0.53333 -2.5,-2 0,-1.77778 -0.66667,-2 -6,-2 h -6 v 4.5 4.5 h 6 c 5.73333,0 6,0.11111 6,2.5 0,2.38889 -0.26667,2.5 -6,2.5 h -6 v 5 5 h 6 c 5.33333,0 6,-0.22222 6,-2 0,-1.46667 0.66667,-2 2.5,-2 2.2963,0 2.5,0.36667 2.5,4.5 v 4.5 h -13.5 c -12.55466,0 -13.5,-0.13188 -13.5,-1.88337 z m 41.25,-0.0337 c -3.9907,-1.86399 -4.25,-2.23638 -4.25,-6.10355 0,-3.6781 0.23618,-4.08428 2.20901,-3.79889 1.39735,0.20214 2.42255,1.23812 2.79019,2.81955 0.43179,1.85738 1.52897,2.7367 4.26835,3.42083 5.25677,1.31283 8.97222,-0.49872 8.54806,-4.16781 -0.27216,-2.35421 -1.27286,-3.11422 -7.26875,-5.5204 C 345.62047,177.15042 344,175.6449 344,170.93391 c 0,-5.68435 4.30519,-8.93513 11.82673,-8.93017 7.50329,0.005 12.17327,2.68325 12.17327,6.98156 0,2.54901 -0.38618,3.0147 -2.5,3.0147 -1.78624,0 -2.5,-0.54047 -2.5,-1.89301 0,-1.04116 -0.7118,-2.16616 -1.58179,-2.5 -2.93562,-1.1265 -9.16294,-0.6195 -10.37834,0.84497 -2.39934,2.89102 -0.68747,4.9549 6.47137,7.80209 8.57199,3.40921 10.69217,5.69005 10.28788,11.06742 -0.22138,2.94451 -0.99452,4.49571 -2.97463,5.96819 -3.88228,2.88701 -11.32884,3.24339 -16.57449,0.79323 z m 35.75,0.0337 c 0,-1.04236 0.89308,-2.11691 2,-2.40638 1.86092,-0.48664 2,-1.36401 2,-12.61663 V 167 h -3.5 c -2.83333,0 -3.5,0.38095 -3.5,2 0,1.46667 -0.66667,2 -2.5,2 -2.2963,0 -2.5,-0.36667 -2.5,-4.5 V 162 h 15 15 v 4.5 c 0,4.13333 -0.2037,4.5 -2.5,4.5 -1.83333,0 -2.5,-0.53333 -2.5,-2 0,-1.61905 -0.66667,-2 -3.5,-2 H 394 v 12.09362 c 0,11.25262 0.13908,12.12999 2,12.61663 1.10692,0.28947 2,1.36402 2,2.40638 0,1.66512 -0.81116,1.88337 -7,1.88337 -6.18884,0 -7,-0.21825 -7,-1.88337 z m 38.21818,0.22029 c -5.26987,-2.59742 -7.62297,-6.80901 -8.05261,-14.41258 -0.41127,-7.27847 0.79786,-10.69921 5.25311,-14.86152 3.66389,-3.42298 12.71865,-4.02896 17.29098,-1.15719 10.15921,6.38075 9.48934,24.91507 -1.08549,30.03426 -5.09089,2.46446 -8.97784,2.57957 -13.40599,0.39703 z m 12.21227,-5.67646 c 4.28634,-4.28635 4.50229,-13.93366 0.42783,-19.1135 -2.14697,-2.72943 -7.26323,-3.47097 -10.81884,-1.56807 -3.84572,2.05817 -5.33372,12.61757 -2.53946,18.02107 2.81515,5.4439 8.89592,6.69504 12.93047,2.6605 z M 452,194.06739 c 0,-1.06294 0.9,-2.21826 2,-2.56739 1.85196,-0.58779 2,-1.51303 2,-12.5 0,-10.98697 -0.14804,-11.91221 -2,-12.5 -1.1,-0.34913 -2,-1.50445 -2,-2.56739 C 452,162.16511 452.77165,162 461.03212,162 474.38843,162 479,164.5393 479,171.89379 c 0,2.01273 -0.91699,3.87556 -2.73978,5.56574 -1.50688,1.39726 -2.21402,2.54047 -1.57143,2.54047 2.21917,0 4.31121,3.15416 4.31121,6.5 0,1.84643 0.675,4.03214 1.5,4.85714 C 483.0151,193.87224 482.35365,196 479.0567,196 475.56779,196 473,192.91008 473,188.71175 473,183.62658 471.41621,182 466.46482,182 H 462 v 4.59362 c 0,3.75262 0.36616,4.68937 2,5.11663 1.10692,0.28947 2,1.36402 2,2.40638 0,1.66512 -0.81116,1.88337 -7,1.88337 -6.25197,0 -7,-0.20652 -7,-1.93261 z m 19.17126,-18.72238 C 475.06795,171.81855 471.99248,167 465.84501,167 H 462 v 5 5 h 3.67126 c 2.01919,0 4.49419,-0.74474 5.5,-1.65499 z m 33.8951,18.75012 c 0,-0.42266 0.13269,-1.21032 0.50376,-1.64937 0.40417,-0.47819 1.32859,-0.48857 1.67988,-0.84035 0.68751,-0.68846 3.44209,-7.63132 6.1213,-15.42858 L 518.2426,162 h 3.27465 c 3.27033,0 3.27987,0.0148 7.24264,11.25 2.1824,6.1875 4.51412,12.9375 5.1816,15 0.66749,2.0625 1.85372,3.75 2.63606,3.75 0.78235,0 1.42245,0.9 1.42245,2 0,1.75758 -0.66667,2 -5.5,2 -4.75362,0 -5.5,-0.2601 -5.5,-1.91667 0,-1.05416 0.43852,-2.06666 0.97448,-2.25 0.53597,-0.18333 0.70848,-1.34583 0.38337,-2.58333 -0.52889,-2.01315 -1.21383,-2.25 -6.50671,-2.25 -5.21776,0 -6.01522,0.26542 -6.7602,2.25 -0.6074,1.6181 -0.45793,2.3408 0.53223,2.57332 0.75725,0.17783 1.37683,1.19033 1.37683,2.25 0,1.6687 -0.73644,1.92668 -5.5,1.92668 -2.43552,0 -4.3248,0.50661 -5.91417,-0.68163 -0.3548,-0.26525 -0.51947,-0.68101 -0.51947,-1.22324 z m 18.69159,-18.34513 -2.1109,-6.25 -1.3698,3.35638 c -0.75339,1.84601 -1.63023,4.65851 -1.94853,6.25 C 517.76646,181.9177 517.86545,182 521.80943,182 h 4.05942 z m 29.55072,18.3032 c -10.53674,-4.78372 -11.40468,-23.10691 -1.41079,-29.78327 4.43397,-2.96208 12.24122,-3.09221 16.85212,-0.28089 2.6936,1.64232 3.25,2.59519 3.25,5.56581 0,3.14502 -0.27573,3.54509 -2.25,3.2647 -1.44538,-0.20528 -2.3642,-1.12358 -2.56933,-2.5679 -0.35946,-2.53081 -3.13601,-3.57297 -8.19343,-3.07533 -9.61695,0.94629 -10.71889,20.52208 -1.30465,23.17686 4.75457,1.34077 8.26883,0.0846 9.47952,-3.38837 0.65715,-1.88509 1.72627,-2.96481 2.93572,-2.96481 1.5453,0 1.90217,0.73371 1.90217,3.91079 0,3.62089 -0.31993,4.06567 -4.31572,6 -5.31587,2.57337 -8.94199,2.60929 -14.37561,0.14241 z M 580,194 c 0,-1.1 0.57524,-2 1.2783,-2 0.71931,0 2.75576,-4.26359 4.65695,-9.75 7.36994,-21.26794 6.84491,-20.25 10.44457,-20.25 h 3.23612 l 4.83604,14.25 c 2.65981,7.8375 5.44623,14.74961 6.19202,15.36024 0.7458,0.61064 1.356,1.84814 1.356,2.75 0,1.32092 -1.06944,1.63976 -5.5,1.63976 -4.83333,0 -5.5,-0.24242 -5.5,-2 0,-1.1 0.4813,-2 1.06955,-2 0.58825,0 0.92575,-1.0125 0.75,-2.25 -0.28613,-2.01472 -0.9597,-2.28078 -6.44131,-2.54439 -5.65895,-0.27213 -6.16733,-0.12093 -6.72448,2 -0.3315,1.26192 -0.16421,2.44439 0.37176,2.62772 0.53596,0.18334 0.97448,1.19584 0.97448,2.25 0,1.65657 -0.74638,1.91667 -5.5,1.91667 -4.83333,0 -5.5,-0.24242 -5.5,-2 z m 19.9225,-13.25 c -0.0426,-0.6875 -0.89093,-3.5 -1.88511,-6.25 -1.16211,-3.21449 -2.02123,-4.46435 -2.40583,-3.5 C 594.66065,173.43451 592,181.2194 592,181.62573 c 0,0.20585 1.8,0.37427 4,0.37427 2.57467,0 3.97238,-0.44542 3.9225,-1.25 z m 19.323,13.07405 c 0,-1.04116 0.76932,-1.77478 1.59432,-2.09137 C 622.05844,191.26505 623,188.79997 623,179 c 0,-9.79997 -0.28138,-12.17074 -1.5,-12.63837 -0.825,-0.31659 -2.2545,-1.42746 -2.2545,-2.46862 0,-1.71324 1.58546,-1.89286 9.5045,-1.89146 9.81302,0.002 14.19125,1.56735 17.67892,6.32178 2.99755,4.08631 2.99755,17.26703 0,21.35334 -3.48767,4.75443 -7.8659,6.32003 -17.67892,6.32178 -7.91904,0.001 -9.5045,-0.46116 -9.5045,-2.1744 z m 20.29995,-5.2786 C 641.68998,186.40093 642,185.19529 642,179 c 0,-6.19529 -0.31002,-7.40093 -2.45455,-9.54545 -1.68298,-1.68299 -3.56902,-2.45455 -6,-2.45455 H 630 v 12 12 h 3.54545 c 2.43098,0 4.31702,-0.77156 6,-2.45455 z M 657,194.11663 c 0,-1.04236 0.89308,-2.11691 2,-2.40638 1.86199,-0.48692 2,-1.36401 2,-12.71025 0,-11.34624 -0.13801,-12.22333 -2,-12.71025 -1.10692,-0.28947 -2,-1.36402 -2,-2.40638 C 657,162.13188 657.94534,162 670.5,162 H 684 v 4.5 c 0,4.13333 -0.2037,4.5 -2.5,4.5 -1.83333,0 -2.5,-0.53333 -2.5,-2 0,-1.77778 -0.66667,-2 -6,-2 h -6 v 4.5 4.5 h 6 c 5.73333,0 6,0.11111 6,2.5 0,2.38889 -0.26667,2.5 -6,2.5 h -6 v 5 5 h 6 c 5.33333,0 6,-0.22222 6,-2 0,-1.46667 0.66667,-2 2.5,-2 2.2963,0 2.5,0.36667 2.5,4.5 v 4.5 h -13.5 c -12.55466,0 -13.5,-0.13188 -13.5,-1.88337 z m 35.05688,-0.01 c 0,-1.04116 1.52381,-2.24634 2.34881,-2.56293 1.21862,-0.46763 1.59431,-2.74409 1.59431,-12.54406 0,-9.79997 -0.28138,-12.17074 -1.5,-12.63837 -0.825,-0.31659 -1.5,-1.42746 -1.5,-2.46862 C 693,162.25133 693.77691,162 698.85172,162 h 5.85171 l 4.27183,12.54312 c 2.3495,6.89872 4.54422,12.27074 4.87714,11.93782 0.33292,-0.33293 2.42532,-5.86483 4.64978,-12.29313 l 4.04448,-11.68781 6.22667,-0.29772 c 5.63961,-0.26965 6.22667,-0.11101 6.22667,1.68261 0,1.10208 -0.88698,2.26185 -2,2.61511 -1.85394,0.58842 -2,1.51303 -2,12.66101 0,11.18523 0.13986,12.0628 2,12.54924 1.10692,0.28947 2,1.36402 2,2.40638 0,1.66512 -0.81116,1.88337 -7,1.88337 -6.18884,0 -7,-0.21825 -7,-1.88337 0,-1.04236 0.89308,-2.11691 2,-2.40638 1.82767,-0.47794 2,-1.36401 2,-10.2833 0,-5.36815 -0.17075,-9.57278 -0.37945,-9.34362 -0.2087,0.22917 -2.29484,5.70417 -4.63587,12.16667 -3.6062,9.95507 -4.57952,11.75 -6.37159,11.75 -1.788,0 -2.69983,-1.66282 -5.89486,-10.75 -4.89119,-13.91132 -5.68577,-15.13232 -5.69423,-8.75 -0.0115,8.70151 1.13558,15.5 2.61529,15.5 0.74839,0 1.36071,0.9 1.36071,2 0,1.79487 -0.66667,2 -6.5,2 -5.71088,0 -7.44312,-0.22982 -7.44312,-1.89301 z m 49.94312,0.01 c 0,-1.04236 0.89308,-2.11691 2,-2.40638 1.86014,-0.48644 2,-1.36401 2,-12.54924 0,-11.14798 -0.14606,-12.07259 -2,-12.66101 -1.1,-0.34913 -2,-1.50445 -2,-2.56739 0,-1.72609 0.74803,-1.93261 7,-1.93261 6.25197,0 7,0.20652 7,1.93261 0,1.06294 -0.9,2.21826 -2,2.56739 -1.85394,0.58842 -1.2455,1.32441 -1.2455,12.47239 0,11.18523 -0.61464,12.25142 1.2455,12.73786 1.10692,0.28947 2,1.36402 2,2.40638 0,1.66512 -0.81116,1.88337 -7,1.88337 -6.18884,0 -7,-0.21825 -7,-1.88337 z m 30.30867,-0.0634 c -10.53674,-4.78372 -11.40468,-23.10691 -1.41079,-29.78327 4.43397,-2.96208 12.24122,-3.09221 16.85212,-0.28089 2.6936,1.64232 3.62725,2.59519 3.62725,5.56581 0,3.14502 -0.65298,3.54509 -2.62725,3.2647 -1.44538,-0.20528 -2.3642,-1.12358 -2.56933,-2.5679 -0.35946,-2.53081 -3.13601,-3.57297 -8.19343,-3.07533 -9.61695,0.94629 -10.71889,20.52208 -1.30465,23.17686 4.75457,1.34077 8.26883,0.0846 9.47952,-3.38837 0.65715,-1.88509 1.72627,-2.96481 2.93572,-2.96481 1.5453,0 2.46804,0.73371 2.46804,3.91079 0,3.62089 -0.8858,4.06567 -4.88159,6 -5.31587,2.57337 -8.94199,2.60929 -14.37561,0.14241 z m 35.90951,0.28372 c -5.26987,-2.59742 -7.62297,-6.80901 -8.05261,-14.41258 -0.41127,-7.27847 0.79786,-10.69921 5.25311,-14.86152 3.66389,-3.42298 12.71865,-4.02896 17.29098,-1.15719 10.15921,6.38075 9.48934,24.91507 -1.08549,30.03426 -5.09089,2.46446 -8.97784,2.57957 -13.40599,0.39703 z m 12.21227,-5.67646 c 4.28634,-4.28635 4.50229,-13.93366 0.42783,-19.1135 -2.14697,-2.72943 -7.26323,-3.47097 -10.81884,-1.56807 -3.84572,2.05817 -5.33372,12.61757 -2.53946,18.02107 2.81515,5.4439 8.89592,6.69504 12.93047,2.6605 z M 669.17394,156.05533 c 1.77003,-2.24076 3.16272,-2.95089 5.82606,-2.97069 l 3.5,-0.026 -3.26578,2.97068 C 673.39795,157.69966 670.84775,159 669.40817,159 h -2.56029 z"
         id="path245"
         sodipodi:nodetypes="sssssssssssssssssssssssssssssssssssssssssssssssssscsssscccsssscssssssssssscsssscccssscccsssscssssssssscssssscssssssssssssssscsssssssscsssssssssssssssssssssssssssssssscccssssssssscsssscccssscccsssscsssssssssssssssssssssssscsssscccsssscsssssssssssssssssssssssssssssscssssssscccsssasscssssssssssssssasccsssccssssssssssssssssscsssssssssssssssssssssssscsscssssscccsssssssscsssscccssscccsssscsssssssscssscssssssssssssssssssssssssssssssssssssssssssssssssssssssssssscsscs" />
    </g>
  </g>
</svg>
