<?xml version="1.0" encoding="UTF-8" standalone="no"?>
<!-- Created with Inkscape (http://www.inkscape.org/) -->

<svg
   version="1.1"
   id="svg151"
   width="368"
   height="369"
   viewBox="0 0 368 369"
   sodipodi:docname="escudo.svg"
   inkscape:version="1.1.1 (3bf5ae0d25, 2021-09-20)"
   xmlns:inkscape="http://www.inkscape.org/namespaces/inkscape"
   xmlns:sodipodi="http://sodipodi.sourceforge.net/DTD/sodipodi-0.dtd"
   xmlns="http://www.w3.org/2000/svg"
   xmlns:svg="http://www.w3.org/2000/svg">
  <defs
     id="defs155" />
  <sodipodi:namedview
     id="namedview153"
     pagecolor="#ffffff"
     bordercolor="#111111"
     borderopacity="1"
     inkscape:pageshadow="0"
     inkscape:pageopacity="0"
     inkscape:pagecheckerboard="1"
     showgrid="false"
     inkscape:zoom="1"
     inkscape:cx="323.5"
     inkscape:cy="155"
     inkscape:window-width="1264"
     inkscape:window-height="760"
     inkscape:window-x="0"
     inkscape:window-y="0"
     inkscape:window-maximized="0"
     inkscape:current-layer="g157" />
  <g
     inkscape:groupmode="layer"
     inkscape:label="Image"
     id="g157">
    <g
       id="g629"
       transform="translate(1.9066883,5.3812336)">
      <path
         style="fill:#3284d8"
         d="m 61.5,354.52015 c -2,-0.44028 -4.041959,-0.72091 -6,-1.32085 -1.87909,-0.57575 -3.653227,-1.45044 -5.479842,-2.17566 -1.826613,-0.72522 -3.703176,-1.33546 -5.479842,-2.17565 -2.548831,-1.20535 -5.058958,-2.52549 -7.400417,-4.09615 -2.124601,-1.42519 -4.062708,-3.11646 -5.986204,-4.80325 -1.921244,-1.68481 -3.817298,-3.41174 -5.537249,-5.30159 -1.618203,-1.77806 -3.103764,-3.68147 -4.476589,-5.65515 -1.28179,-1.8428 -2.330865,-3.83701 -3.496296,-5.75552 -1.165433,-1.91851 -2.471164,-3.75853 -3.496296,-5.75553 -1.234322,-2.40451 -2.269739,-4.91414 -3.177185,-7.46007 C 9.9772349,307.2352 8.7075953,304.44988 8.5,301.5 8.0591403,295.23548 8.2038757,282.76641 8.2038757,282.76641 L 8.2045697,243.75 7.9091395,186 H 92.95457 178 v 85 85 L 122.75,355.9205 67.5,355.841 c 0,0 -4,-0.88057 -6,-1.32085 z M 149,281.54531 v -41.45468 l -3.43511,-0.64444 -3.43512,-0.64443 -1.06488,0.65814 L 140,240.11803 V 277.05902 314 H 101.82874 63.657481 L 61.828741,312.34501 60,310.69002 v -4.77358 -4.77358 L 61.571429,299.57143 63.142857,298 H 74.071429 85 V 273 248 H 97.057498 109.115 L 108.8075,243.75 108.5,239.5 96.75,239.21826 85,238.93653 V 230.96826 223 l -11.75,0.004 -11.75,0.004 -3.25914,1.98712 -3.25914,1.98712 -2.005567,3.25914 -2.005568,3.25914 0.264708,40.17793 0.264707,40.17793 2.071085,2.82207 2.071085,2.82207 3.428915,1.74845 3.428915,1.74844 43.25,0.002 L 149,323 Z M 59.997651,262.32143 60,235.14286 61.571429,233.57143 63.142857,232 H 69.571429 76 v 28.42385 28.42386 l -8.002349,0.32614 -8.002349,0.32615 0.0023,-27.17857 z M 134,259.93979 V 233 h -9.5 -9.5 v 27.16211 27.16211 l 4.62454,7.88821 4.62454,7.88822 4.87546,-8.11053 L 134,286.87959 Z M 134,221 v -7 h -9.5 -9.5 v 7 7 h 9.5 9.5 z m 54,50.04543 V 186 h 85.04543 85.04543 l -0.29543,57.75 -0.29543,57.75 -2.82363,7.9904 -2.82364,7.9904 -3.49629,5.75553 -3.4963,5.75552 -5.00692,5.47837 -5.00691,5.47837 -7.05541,4.69042 -7.0554,4.69042 -8.61775,3.08528 L 303.5,355.5 245.75,355.79543 188,356.09086 Z m 140.46029,50.00101 1.60093,-2.1799 -0.88558,-1.84822 -1.14093,-2.71156 -2.1417,-4.23434 -2.85395,-5.12289 -0.0211,-16.37711 0.018,-16.07242 4.98204,-3.25769 c 0,0 3.4546,-1.73004 4.50239,-3.25768 0.3545,-0.51684 0.47964,-1.818 0.47964,-1.818 0,0 -0.008,-1.22618 -0.22383,-1.78602 -0.34985,-0.90761 -0.98302,-1.70572 -1.67444,-2.3899 -0.74723,-0.73942 -2.60173,-1.78236 -2.60173,-1.78236 L 300.62806,240.10417 272.75612,222 c 0,0 -1.63186,-1.15332 -2.57524,-1.17574 -1.05423,-0.025 -2.937,1.17574 -2.937,1.17574 L 239.37194,240.08958 211.5,258.17916 c 0,0 -1.78706,1.30047 -2.57688,2.06808 -0.78768,0.76552 -1.78188,1.46992 -2.13493,2.51003 -0.22436,0.66098 -0.10001,1.4243 0.1054,2.09142 0.2199,0.71417 0.64771,1.3764 1.16607,1.91464 3.29642,3.42287 11.88829,7.86833 11.88829,7.86833 l 11.7633,7.30584 c 0,0 0.13695,7.6148 0.20688,11.42218 0.068,3.70325 -0.3127,7.79553 0.20687,11.10969 0.1598,1.01932 1.09721,1.77994 1.86163,2.47292 0.96677,0.87642 3.34279,2.03726 3.34279,2.03726 0,0 3.17688,1.50262 4.82012,2.11929 1.74991,0.6567 5.35046,1.67734 5.35046,1.67734 0,0 4.85233,1.17215 7.31655,1.54941 2.33897,0.35809 7.06656,0.67441 7.06656,0.67441 H 270 h 8.11689 l 7.19156,-1.11191 7.19155,-1.11191 5.08529,-1.89831 5.08529,-1.89832 c 0,0 2.13108,-1.41482 2.98923,-2.34662 0.75445,-0.81919 1.7502,-1.67853 1.84019,-2.78856 0.32526,-4.01226 0.33193,-10.67547 0.33193,-10.67547 l -0.0437,-11.02901 5.28211,-2.89317 L 317.97677,276 c 0,0 0.37237,-0.26039 0.58344,-0.24859 0.16813,0.009 0.44142,0.0802 0.43979,0.24859 -0.0404,4.16596 0,14.45599 0,14.45599 v 14.456 l -2.8843,4.89178 -2.29369,4.48645 -1.23046,2.76978 -0.70235,1.86445 1.09058,2.03778 1.09059,2.03777 h 6.39339 6.39338 z M 318.70139,314.5 320.37042,311 H 321 h 0.62958 l 1.66903,3.5 1.66903,3.5 H 321 317.03236 Z m -68.50399,-6.00931 c 0,0 -3.40142,-0.92807 -5.05259,-1.53912 -0.8354,-0.30916 -2.44741,-1.07303 -2.44741,-1.07303 L 240.5,304.743 238.75,303.21651 237,301.69002 V 285.5 269.30998 l 1.81972,-1.64683 1.81972,-1.64682 5.93028,-2.21034 5.93028,-2.21033 17,-0.0478 17,-0.0478 5.67918,1.80037 5.67917,1.80037 2.57083,2.02221 2.57082,2.02221 v 16.27243 16.27243 l -1.88779,1.70843 -1.88778,1.70842 -5.36222,2.13425 c 0,0 -3.06991,1.78638 -5.36221,2.13424 -5.43862,0.82532 -11.16577,0.99556 -16.76517,1.09147 -5.41337,0.0927 -10.88241,0.31584 -16.23483,-0.49953 -1.81386,-0.27632 -5.3026,-1.47661 -5.3026,-1.47661 z M 252,293 l 9.5,-1.97373 8.34292,-1.03633 8.34291,1.01013 10.02981,2.04394 10.0298,2.04395 c 0,0 0.48588,-0.0936 0.6542,-0.25644 0.18214,-0.17624 0.28802,-0.44526 0.30063,-0.69839 0.0169,-0.33923 -0.13522,-0.67882 -0.30784,-0.97133 -0.20626,-0.34949 -0.49889,-0.66031 -0.83817,-0.88295 -1.77885,-1.16733 -3.96562,-1.55271 -5.99588,-2.18913 -2.38327,-0.74707 -4.79033,-1.45144 -7.24588,-1.90788 -4.8801,-0.90712 -9.83738,-1.67889 -14.80089,-1.6363 -5.54854,0.0476 -16.51161,2.11285 -16.51161,2.11285 l -5.92248,1.9383 c 0,0 -4.14979,0.97519 -5.95373,2.04767 -0.39032,0.23206 -0.8658,0.48772 -1.0046,0.92007 -0.13649,0.42515 -0.049,1.00518 0.27664,1.31068 0.18936,0.17764 0.77084,0.1119 0.77084,0.1119 l 0.83333,-0.0133 z m -30,-22.54161 c 0,0 -6.59694,-4.37837 -9.5,-6.17273 -0.27887,-0.17237 -0.24096,-0.67567 -0.11784,-0.98122 0.18014,-0.44703 0.84419,-0.73707 1.11959,-0.91493 C 223.1914,256.13177 240.88821,244.75 240.88821,244.75 L 268.45146,227 h 1.68406 1.68407 l 27.64955,17.90837 c 0,0 18.11826,11.76283 27.64955,17.90838 0.19554,0.12608 0.50872,0.30061 0.58236,0.55954 0.0738,0.25931 0.024,0.63497 -0.20105,0.78338 -3.124,2.06007 -9.75,6.40208 -9.75,6.40208 l -9.75,6.40208 -0.004,-3.73192 c 0,0 0.22827,-2.50982 -0.004,-3.73191 -0.21244,-1.11773 -0.69074,-2.18509 -1.24881,-3.17656 -0.79961,-1.42059 -1.69922,-2.86084 -2.96265,-3.89099 -1.4691,-1.19785 -3.36082,-1.77101 -5.12535,-2.4635 -1.66868,-0.65487 -3.40254,-1.13865 -5.13769,-1.58877 -1.37074,-0.35559 -2.76505,-0.61572 -4.15702,-0.87614 -1.85392,-0.34684 -3.71065,-0.69491 -5.58401,-0.9136 -4.69253,-0.54779 -9.41383,-0.99555 -14.13823,-0.99485 -4.69496,6.9e-4 -9.40726,0.29352 -14.04985,0.9928 -1.89116,0.28485 -5.58839,1.29936 -5.58839,1.29936 0,0 -3.48777,0.92815 -5.19064,1.52033 -1.57258,0.54687 -4.63032,1.87315 -4.63032,1.87315 l -4.32096,2.00573 c 0,0 -1.08805,1.25218 -1.54716,1.94028 -0.55922,0.83812 -1.45878,2.64737 -1.45878,2.64737 l -0.67607,4.37826 -0.27832,4.46664 z M 8.2045697,118.25 8.5,60.5 l 3.085285,-8.61775 3.085285,-8.617751 4.690423,-7.055402 4.690422,-7.055402 5.478367,-5.006919 5.478367,-5.006919 5.755524,-3.496296 5.755524,-3.496296 L 54.509598,9.3236327 62.5,6.5 120.25,6.2045697 178,5.9091395 V 90.95457 176 H 92.95457 7.9091395 Z m 121.2526503,38.25 6.26458,-5.5 2.3891,-0.0153 c 0,0 1.62455,0.10638 2.42302,-0.0153 0.52319,-0.0797 1.09641,-0.1442 1.51859,-0.46336 0.3182,-0.24055 0.64808,-1.00601 0.64808,-1.00601 L 143.8503,147.31577 145,145.13151 V 104.53365 63.935793 c 0,0 -0.21696,-2.413004 -0.67036,-3.516942 -0.48121,-1.171639 -2.11743,-3.155178 -2.11743,-3.155178 0,0 -1.85246,-2.187178 -2.99434,-3.032072 C 138.09333,53.399525 135.5,52.284793 135.5,52.284793 L 106.0586,40.057556 76.617193,27.830318 c 0,0 -2.800557,-0.208579 -4.178723,-0.0064 -1.439426,0.211113 -4.178723,1.259726 -4.178723,1.259726 0,0 -3.675085,1.461314 -5.327576,2.52495 -1.489912,0.95899 -4.0614,3.429362 -4.0614,3.429362 0,0 -2.296835,2.493133 -2.971159,4.015562 -0.677248,1.529031 -0.981453,4.919975 -0.981453,4.919975 L 55.209079,86.236721 55.5,128.5 l 2.009095,3.4196 2.009096,3.4196 29.990904,13.2965 29.990905,13.2965 1.84632,0.0339 1.84631,0.0339 z m -8.37622,3.0976 -1.16388,-1.40239 3.04144,-2.1657 3.04144,-2.1657 v 2.3681 2.36809 l -1.2,1.2 -1.2,1.2 h -0.67756 -0.67755 z m 4.91745,-44.3476 -0.002,-37.75 c 0,0 0.0954,-2.747812 -0.48226,-3.937136 -0.62275,-1.282147 -3.01463,-3.032724 -3.01463,-3.032724 l -4,-2.24862 -4,-2.248619 -0.64301,-0.01645 L 113.21398,66 c 0,0 -1.39914,1.107095 -1.47635,1.75 L 111.52747,69.5 111.01373,86.380326 110.5,103.26065 106.02637,96.657491 101.55273,90.054329 98.971646,92.527165 96.390562,95 H 95.695281 95 V 78.2 61.4 l 1.183333,-1.183333 1.183334,-1.183334 -0.433334,-0.3371 L 96.5,58.359132 78.800346,50.589434 61.100691,42.819735 60.050346,43.468885 59,44.118034 V 46.559017 49 H 57.5 56 v -1.777316 -1.777315 l 2.75,-2.715833 2.75,-2.715832 2.882183,-2.9139 2.882184,-2.9139 4.117816,-1.149959 L 75.5,31.885986 105.90803,44.692993 136.31606,57.5 l 2.09197,2.82207 2.09197,2.822069 0.2828,40.535951 0.28279,40.53595 -1.15524,1.39198 L 138.75511,147 h -2.24005 -2.24005 l -3.77501,3 -3.77501,3 H 126.3625 126 l -0.002,-37.75 z m 62.2459,-24 L 188.5,6.5 H 246 l 56.98839,-0.5116126 c 0,0 2.72785,0.4556396 4.05597,0.8306357 2.01809,0.5698085 3.9787,1.3378856 5.91308,2.1475437 2.64898,1.1087602 5.24495,2.3513132 7.77806,3.7040032 2.44392,1.30506 4.83505,2.716933 7.14379,4.248481 2.40366,1.594515 4.77475,3.257788 6.96702,5.132364 1.9417,1.660322 3.72839,3.501355 5.44885,5.389979 1.61604,1.773997 3.12211,3.649263 4.56498,5.566755 1.42236,1.89024 2.78043,3.833165 4.02663,5.843912 1.13792,1.836041 2.17006,3.738452 3.14274,5.667136 1.24527,2.469206 2.54114,4.933984 3.44236,7.548459 0.94211,2.733121 2.03923,5.541426 2.02813,8.432344 -0.071,18.491769 0.29543,57.75 0.29543,57.75 l 0.29543,57.75 h -85.05108 -85.05107 z m 101.87522,59.51368 c 2.32804,-0.76091 4.58605,-1.73603 6.80045,-2.78252 1.65559,-0.78241 3.28358,-1.63508 4.83521,-2.60748 1.54238,-0.9666 3.00984,-2.05453 4.42823,-3.19534 2.37528,-1.91045 4.67419,-3.92754 6.81654,-6.09599 2.10641,-2.13208 4.11083,-4.37888 5.91213,-6.7743 1.42949,-1.90097 2.74008,-3.90263 3.86243,-5.99964 1.07591,-2.01025 1.92818,-4.13724 2.7319,-6.27095 0.93614,-2.48524 1.83107,-5.00042 2.42766,-7.58825 0.58439,-2.5349 0.82683,-5.13868 1.11625,-7.72392 0.25356,-2.26495 0.44443,-4.538749 0.54264,-6.815731 0.096,-2.224674 0.18924,-4.457994 0.0452,-6.680075 -0.17005,-2.623633 -0.47369,-5.253977 -1.07103,-7.814355 -0.60226,-2.581424 -1.52833,-5.084006 -2.5181,-7.543033 -0.88341,-2.194779 -1.89053,-4.34608 -3.04328,-6.412151 -1.17947,-2.113982 -2.46577,-4.181457 -3.9477,-6.095607 -2.30421,-2.976267 -4.88331,-5.751833 -7.63825,-8.316569 -2.12656,-1.979728 -4.47741,-3.709652 -6.82429,-5.422451 -1.79706,-1.311526 -3.61607,-2.606867 -5.5478,-3.710469 -1.78203,-1.018078 -3.65701,-1.872225 -5.54779,-2.670395 -1.82777,-0.771572 -3.68599,-1.486428 -5.59044,-2.042429 -1.73091,-0.505335 -3.49849,-0.901271 -5.28166,-1.169051 -3.68002,-0.552632 -7.40663,-0.883512 -11.1279,-0.895322 -3.46294,-0.01099 -6.93908,0.232547 -10.36048,0.767418 -2.07967,0.325122 -4.11727,0.893518 -6.13949,1.477838 -1.85943,0.537281 -3.70275,1.143187 -5.5,1.861546 -2.03161,0.812033 -4.04133,1.699915 -5.95478,2.760836 -1.97869,1.09709 -3.8764,2.349088 -5.68346,3.710469 -2.70423,2.037287 -5.24223,4.2974 -7.68347,6.643407 -2.35156,2.259818 -4.69119,4.562694 -6.68863,7.140834 -1.45211,1.87427 -2.65089,3.937982 -3.81204,6.005166 -1.05402,1.876468 -2.05438,3.793446 -2.85463,5.791366 -1.00333,2.504893 -1.83433,5.090575 -2.42311,7.723915 -0.61397,2.745971 -0.91228,5.55922 -1.14407,8.36343 -0.18175,2.198802 -0.25121,4.41062 -0.19186,6.616123 0.0624,2.319066 0.27505,4.635517 0.57557,6.93588 0.32758,2.50758 0.72638,5.01378 1.33592,7.46811 0.6516,2.62367 1.44716,5.22269 2.47288,7.72391 0.7941,1.93643 1.81946,3.77228 2.83514,5.60224 1.06827,1.92469 2.19715,3.8191 3.42303,5.64745 1.37153,2.0456 2.80104,4.06128 4.39084,5.94226 1.61374,1.90929 3.35364,3.71952 5.20482,5.3996 1.92975,1.75138 3.97731,3.38292 6.12695,4.8561 1.78603,1.22399 3.67214,2.30563 5.59982,3.29157 1.88864,0.96598 3.84173,1.81076 5.82598,2.56099 1.69949,0.64256 3.43636,1.19207 5.1929,1.65656 1.49622,0.39564 3.01262,0.72694 4.54264,0.95981 1.60324,0.24402 3.22445,0.36652 4.84368,0.45596 2.80618,0.15501 5.62391,0.29181 8.43022,0.13915 3.17957,-0.17297 6.34771,-0.6093 9.47805,-1.19286 2.28826,-0.42658 4.56468,-0.9599 6.77718,-1.68305 z m -36.06011,-3.55759 c -2.06733,-0.671 -4.05158,-1.58598 -6.01167,-2.52521 -1.64186,-0.78674 -3.26284,-1.62959 -4.8036,-2.59949 -1.65341,-1.04081 -3.22499,-2.21338 -4.74419,-3.44183 -1.95226,-1.57862 -3.84631,-3.2401 -5.60097,-5.0358 -1.71245,-1.75251 -3.32985,-3.60852 -4.78698,-5.57843 -1.44928,-1.9593 -2.72422,-4.04854 -3.91177,-6.17669 -1.14871,-2.05856 -2.21173,-4.17305 -3.09779,-6.35757 -0.71381,-1.75985 -1.25176,-3.58806 -1.77734,-5.41298 -0.5904,-2.04997 -1.20371,-4.10491 -1.54349,-6.21098 -0.47129,-2.92122 -0.69602,-5.892191 -0.67698,-8.851122 0.0185,-2.871292 0.39357,-5.732892 0.76742,-8.579802 0.27995,-2.131844 0.59884,-4.26527 1.10359,-6.355332 0.50907,-2.108016 1.12397,-4.200172 1.93495,-6.211442 0.82991,-2.058215 1.82503,-4.058845 2.98289,-5.952087 1.28547,-2.1019 2.78657,-4.074046 4.37376,-5.958515 1.73531,-2.060325 3.68033,-3.936981 5.60674,-5.819846 1.88959,-1.846877 3.74684,-3.745874 5.83283,-5.36764 1.78141,-1.384967 3.71847,-2.565347 5.67047,-3.697269 1.91023,-1.107698 3.86553,-2.152443 5.89657,-3.018958 1.79161,-0.764369 3.65601,-1.352937 5.52194,-1.911924 1.83415,-0.549467 3.67464,-1.124002 5.56716,-1.414497 2.93069,-0.449849 5.91623,-0.478611 8.88119,-0.496095 3.07356,-0.01813 6.15983,0.04254 9.21193,0.405654 1.74026,0.207042 3.46403,0.566508 5.16018,1.007511 1.79743,0.467338 3.56347,1.061653 5.29583,1.731042 1.84558,0.713137 3.66308,1.511238 5.41608,2.428682 2.16436,1.132729 4.28159,2.373657 6.27528,3.7853 2.17596,1.540708 4.20818,3.284319 6.17167,5.088013 2.13513,1.961363 4.22744,3.989365 6.08123,6.218528 1.75603,2.111598 3.39291,4.345542 4.74152,6.737978 1.13968,2.021812 1.96754,4.208597 2.79703,6.376213 0.72984,1.907226 1.41543,3.839416 1.913,5.819973 0.51357,2.04421 0.89293,4.129325 1.09905,6.226958 0.27825,2.831862 0.26238,5.69025 0.18088,8.534582 -0.0826,2.882701 -0.32767,5.762535 -0.67831,8.625025 -0.25957,2.11906 -0.54328,4.24444 -1.05382,6.3174 -0.49975,2.02913 -1.19096,4.01181 -1.95823,5.95563 -0.86628,2.19466 -1.81577,4.36804 -2.97791,6.42143 -1.202,2.12382 -2.60837,4.13478 -4.10843,6.05968 -1.60776,2.0631 -3.34049,4.03988 -5.22204,5.85676 -2.07899,2.00752 -4.34236,3.82599 -6.6691,5.54022 -1.61814,1.19215 -3.30838,2.29224 -5.05432,3.28787 -2.05688,1.17294 -4.17728,2.24816 -6.36571,3.15221 -1.63276,0.6745 -3.32194,1.21455 -5.02451,1.68582 -1.84604,0.51099 -3.7202,0.93598 -5.61239,1.23362 -3.05069,0.47986 -6.13439,0.83847 -9.22225,0.88504 -3.38716,0.0511 -6.79022,-0.16657 -10.14085,-0.66532 -2.51951,-0.37503 -5.0177,-0.95592 -7.44054,-1.74231 z M 280.38794,134.5 l 2.34066,-3 -2.00487,-30 -2.06882,-30.959274 -2.81184,-2.705281 -2.1865,-2.70528 2.53816,-2.841227 L 278.26972,60 l 1.61514,-0.0037 c 0,0 1.42978,-0.323521 2.12675,-0.547288 1.09523,-0.35163 2.21827,-0.67722 3.21803,-1.246121 1.02012,-0.580491 2.04987,-1.24685 2.77036,-2.173418 0.58249,-0.749103 1.04589,-1.660578 1.15113,-2.603646 0.0981,-0.879023 -0.10702,-1.817131 -0.51161,-2.603647 -0.41199,-0.800898 -1.14575,-1.409126 -1.85397,-1.965547 -0.90623,-0.711996 -1.93327,-1.286163 -3.00508,-1.709741 -1.59632,-0.630863 -3.31752,-0.899746 -5.00729,-1.20123 -1.57006,-0.280126 -3.1601,-0.456532 -4.75148,-0.561713 -1.88466,-0.124565 -3.77881,-0.164731 -5.66573,-0.08116 -1.81111,0.08021 -3.6288,0.220519 -5.40993,0.558354 -1.28222,0.243203 -2.55336,0.583006 -3.77124,1.052049 -1.35573,0.522132 -2.83339,0.960058 -3.89914,1.947371 -0.69392,0.642846 -1.1892,1.527666 -1.45796,2.434606 -0.2974,1.003588 -0.49775,2.163854 -0.11496,3.138074 0.42464,1.080722 1.53927,1.759858 2.46318,2.463183 0.94606,0.720186 2.01086,1.288991 3.1027,1.759717 0.91572,0.394797 1.89913,0.610702 2.8596,0.878887 0.90433,0.252509 2.73169,0.687032 2.73169,0.687032 l 2.25069,2.203887 2.25068,2.587597 -2.62343,2.743267 -2.62344,2.743266 -2.10285,30.794321 -2.10286,30.79432 5.7332,6.53021 5.73321,6.53021 3.33608,-3.82453 3.33608,-3.82453 2.34067,-3 z M 271,135 v -1 h 1 1 v 1 1 h -1 -1 z m -7,-4 v -1 h 1.55902 1.55901 l -0.61803,1 -0.61803,1 H 264.94098 264 Z m 11.5,-3 -0.61803,-1 h 1.61803 1.61803 l -0.61803,1 -0.61803,1 H 276.5 276.11803 Z m -8.5,-4 v -1 h 1.55902 1.55901 l -0.61803,1 -0.61803,1 H 267.94098 267 Z m 8,-5.03205 -1.5,-0.96795 1.5,-0.96795 1.5,-0.96796 0.33333,0.96796 0.33334,0.96795 -0.33334,0.96795 -0.33333,0.96796 z m -8.72379,-4.09174 -1.12379,-1.12379 1.16853,-1.25091 1.16852,-1.25091 1.25527,0.48169 L 270,112.21398 V 114.10699 116 h -1.3 -1.3 z M 275,109.44098 v -1.55901 l 1,0.61803 1,0.61803 V 110.05902 111 h -1 -1 z m -9,-4.77431 v -1.33334 l 0.59777,-0.59776 0.59776,-0.59777 1.33909,0.51386 1.3391,0.51386 -0.54385,1.41724 L 268.78602,106 H 267.39301 266 Z m 8.57951,-3.32005 -0.586,-1.527104 0.56226,-0.909758 L 275.11803,98 H 276.55902 278 v 1.893011 1.893009 l -1.41724,0.54385 -1.41724,0.54385 z M 266,97 v -1 h 1 1 v 1 1 h -1 -1 z m 9,-4.559017 v -1.559017 l 1,0.618034 1,0.618034 V 93.059017 94 h -1 -1 z m -6.27664,-1.346117 -1.77665,-0.63973 1.45933,-1.977568 1.45932,-1.977568 1.17094,1.153625 1.17095,1.153624 -0.85363,1.463674 L 270.5,91.734597 Z M 266,81.059017 V 80.118034 L 267,79.5 268,78.881966 V 80.440983 82 h -1 -1 z M 274,81 v -1 h 0.94098 0.94099 l 0.61803,1 0.61803,1 H 275.55902 274 Z m -4.34834,-6.465377 -0.51386,-1.339092 0.59777,-0.597765 L 270.33333,72 h 1.16667 1.16667 v 1.456967 1.456967 l -1.25058,0.479891 -1.25057,0.47989 z M 258.77036,56.05272 c -1.00137,-0.45097 -2.10472,-0.985287 -2.67443,-1.924196 -0.27033,-0.445512 -0.32566,-1.036167 -0.22383,-1.547234 0.12214,-0.612995 0.50049,-1.18669 0.95927,-1.611187 0.92284,-0.853873 2.19416,-1.256825 3.38072,-1.672531 1.24291,-0.435445 2.55591,-0.659889 3.86036,-0.84116 2.40022,-0.333547 4.83325,-0.495321 7.25608,-0.447661 2.53771,0.04992 5.08465,0.28111 7.57583,0.767419 1.2039,0.235016 2.35201,0.652121 3.53183,1.033288 1.57302,0.508193 2.91125,0.848371 3.65974,2.024537 0.25275,0.39717 0.14234,0.940577 0.0959,1.409056 -0.024,0.242548 -0.0652,0.497356 -0.19185,0.705589 -0.42334,0.695908 -1.09883,1.237694 -1.79921,1.653583 -1.24192,0.737455 -2.69288,1.078296 -4.10147,1.397777 -0.9744,0.221002 -1.97765,0.363779 -2.97673,0.351734 -0.82996,-0.01001 -1.70318,-0.02248 -2.46511,-0.351734 -0.74772,-0.323111 -1.90919,-1.525228 -1.90919,-1.525228 l -1.46153,-1.525229 -1.04199,1.589181 c 0,0 -0.85031,1.187303 -1.48966,1.461276 -0.80195,0.343653 -1.7435,0.09759 -2.61594,0.08876 -1.22545,-0.0124 -2.45735,-0.02997 -3.67115,-0.19902 -1.25165,-0.174326 -2.54538,-0.31809 -3.69766,-0.83702 z"
         id="path633"
         sodipodi:nodetypes="aaaaaaaaaaascccccccccacccccccccccccccccccccccccccccccccccccccccccccccccccccccccccccccccccccccccccccccccccccccccccccccccccccccacaacccacccaaaaccasacacacccccccasccccascccccccccccccccccccccacccccccccccccccccccccsaaccccccccaaaaaaaccaaaccccsascccccsascccaaaaaaaaacaccaccccccccccccccccccccccccccaacccccacacccacacacccccccccccccccccccccccacccccscccccccccccccccccccccccccccccccccccccccccccccccccccaaaaaaaaaascccccaaaaaaaaaaaaaaaaaaaaaaaaaaaaaaaaaaaaaaaaaaaaaaaaaaaaaaaaaaaaaaaaaaaaaaaaaaaaaaaaaaaaaaaaaaaaaaaaaaaacccccccccaaaaaaaaaaaaaaaaaaccccccccccccccccccccccccccccccccccccccccccccccccccccccccccccccccccccccccccccccccccccccccccccccccccccccccccccccccccccccccccccccccccccccccccccccccccccccccccccaaaaaaaasaaaaaaacccaaaaa" />
      <path
         style="fill:#c39e2a"
         d="M 188,271.04543 V 186 h 85.04543 85.04543 l -0.29543,57.75 c 0,0 0.002,38.43156 -0.29543,57.75 -0.0434,2.82454 -1.22767,6.12682 -2.2933,9.05106 -0.87865,2.41114 -2.12742,4.6756 -3.35397,6.92974 -1.07289,1.97175 -2.33086,3.83702 -3.49629,5.75553 -1.16543,1.91851 -2.2489,3.88927 -3.4963,5.75552 -1.373,2.05416 -2.74917,4.12397 -4.38192,5.97837 -1.67268,1.89974 -3.54105,3.63392 -5.50691,5.22837 -2.13974,1.73549 -4.48748,3.20125 -6.80541,4.69042 -2.42755,1.5596 -4.90177,3.05068 -7.4304,4.44042 -2.49143,1.36929 -4.94945,2.85429 -7.61775,3.83528 -3.09644,1.1384 -6.56677,2.36569 -9.61775,2.33529 -19.48838,-0.19421 -57.75,0.29543 -57.75,0.29543 L 188,356.09086 Z m 140.46029,50.00101 1.60093,-2.1799 -0.88389,-1.76776 -1.14262,-2.79202 -2.15734,-4.31246 -2.83832,-5.04477 -0.0211,-16.37711 0.018,-16.07242 4.98208,-3.25769 c 0,0 3.38096,-1.75776 4.43844,-3.25768 0.36446,-0.51695 0.54359,-1.818 0.54359,-1.818 0,0 0.0346,-0.83407 -0.0872,-1.22487 -0.32527,-1.04435 -0.92265,-2.025 -1.6669,-2.82659 -0.75823,-0.81663 -2.74594,-1.90682 -2.74594,-1.90682 L 300.62806,240.10417 272.75612,222 c 0,0 -1.77939,-0.99485 -2.75611,-0.99485 -0.97673,0 -2.75613,0.99485 -2.75613,0.99485 L 239.37194,240.08958 211.5,258.17916 c 0,0 -1.79287,1.2729 -2.55478,2.05703 -0.85435,0.87927 -1.9397,1.73715 -2.22333,2.92988 -0.17178,0.72243 0.13235,1.49963 0.40371,2.19085 0.15195,0.38703 0.37916,0.75465 0.6689,1.05286 3.40837,3.50797 12.15345,8.22188 12.15345,8.22188 l 11.7633,7.30584 c 0,0 0.209,7.23918 0.26938,10.85968 0.063,3.78007 -0.0829,8.45147 0.097,11.34138 0.0989,1.58864 1.49658,2.08167 2.43929,2.93631 0.83884,0.76047 2.81246,1.90468 2.81246,1.90468 0,0 3.24949,1.53145 4.92996,2.15981 1.71418,0.64097 5.24062,1.63682 5.24062,1.63682 0,0 4.89879,1.1074 7.37905,1.48691 2.32057,0.35507 7.00406,0.73691 7.00406,0.73691 H 270 h 8.11689 l 7.19156,-1.11191 c 0,0 4.82667,-0.7733 7.19155,-1.37708 1.72503,-0.44041 5.08529,-1.63314 5.08529,-1.63314 0,0 3.20265,-1.55325 4.77593,-2.38446 1.09843,-0.58033 2.33621,-0.97947 3.2544,-1.81629 0.82016,-0.74748 1.80335,-1.48926 1.88438,-2.74436 0.25465,-3.94478 0.33193,-10.76386 0.33193,-10.76386 l -0.0437,-11.02901 5.28208,-2.89317 L 317.97677,276 c 0,0 0.34921,-0.25596 0.5518,-0.25479 0.18257,0.001 0.4682,0.0479 0.46819,0.24161 -3.5e-4,4.56107 0.003,14.46917 0.003,14.46917 v 14.456 l -2.8843,4.89178 -2.38208,4.75162 -1.16444,2.67288 -0.67998,1.69618 1.09058,2.03778 1.09059,2.03777 h 6.39339 6.39338 z M 318.70139,314.5 320.37042,311 H 321 h 0.62958 l 1.66903,3.5 1.66903,3.5 H 321 317.03236 Z m -68.50399,-6.00931 c 0,0 -3.32293,-0.84947 -4.92759,-1.44537 -0.88266,-0.32778 -2.57241,-1.16678 -2.57241,-1.16678 L 240.5,304.743 l -2.28125,-1.29212 c 0,0 -1.21085,-0.61871 -1.21875,-1.76086 -0.0373,-5.39655 0,-16.19002 0,-16.19002 v -16.19002 c 0,0 0.75743,-1.37041 1.31972,-1.89683 0.65891,-0.61687 1.52342,-0.97185 2.31972,-1.39682 2.11275,-1.12752 4.26906,-2.19184 6.5048,-3.05003 1.94291,-0.74578 3.92495,-1.45132 5.97448,-1.81258 5.26656,-0.92831 10.67194,-0.91396 16.01952,-0.87204 5.80131,0.0455 11.603,0.51559 17.36176,1.21838 1.86457,0.22755 3.71219,0.58668 5.55128,0.969 2.05708,0.42763 4.22027,0.59771 6.12683,1.48061 1.20197,0.55662 2.32966,1.35254 3.21034,2.34197 0.7263,0.81598 1.6063,1.95316 1.61155,2.85358 0.0302,5.17377 0,16.27243 0,16.27243 0,0 -0.01,10.96089 0,16.27243 0.002,0.84869 -1.02793,1.39627 -1.66682,1.9736 -0.63198,0.57108 -1.38003,1.00224 -2.10875,1.44325 -1.43182,0.86652 -2.89227,1.70438 -4.43414,2.35522 -1.79697,0.75852 -3.65783,1.41126 -5.57154,1.78827 -5.44574,1.07282 -11.05078,1.19141 -16.60003,1.30485 -5.77161,0.11799 -11.60141,0.23306 -17.30622,-0.65041 -1.74815,-0.27072 -5.1151,-1.41411 -5.1151,-1.41411 z m 1.8651,-15.77194 c 3.07323,-0.67448 6.13889,-1.41027 9.25,-1.87998 2.8255,-0.42658 5.67291,-0.84481 8.53042,-0.84883 2.7416,-0.004 5.47265,0.40338 8.18666,0.79138 3.50519,0.50111 6.97341,1.2415 10.43606,1.98144 3.27682,0.70023 9.7798,2.3252 9.7798,2.3252 0,0 0.51701,-0.1236 0.69839,-0.30063 0.17174,-0.16763 0.29186,-0.41437 0.30063,-0.6542 0.0115,-0.31398 -0.16914,-0.61301 -0.32994,-0.88294 -0.22335,-0.37493 -0.53216,-0.82087 -0.86026,-0.98696 -1.80359,-0.91298 -4.11126,-1.54734 -6.05838,-2.14226 -2.16923,-0.66278 -4.33117,-1.38474 -6.55838,-1.81413 -5.03308,-0.97035 -10.15745,-1.7849 -15.28258,-1.70416 -5.62888,0.0887 -11.20471,1.25833 -16.71742,2.39946 -1.98233,0.41034 -5.85998,1.59455 -5.85998,1.59455 0,0 -3.56937,0.93451 -5.6881,1.90705 -0.46637,0.21406 -1.12674,0.61256 -1.27023,1.17006 -0.10935,0.42484 0.0749,0.97387 0.41722,1.24819 0.16481,0.13205 0.63022,0.065 0.63022,0.065 l 0.83333,-0.0133 c 0,0 6.36374,-1.5529 9.56254,-2.25494 z m -28.25054,-21.02292 c 0,0 -8.33132,-5.61105 -11.3672,-7.43227 -0.31041,-0.18621 -0.22449,-0.64799 -0.11789,-0.94807 0.10476,-0.29489 0.42778,-0.49121 0.67765,-0.64976 9.62616,-6.10808 27.88365,-17.91573 27.88365,-17.91573 L 268.45146,227 c 0,0 1.15604,-0.55237 1.7745,-0.54265 0.56109,0.009 1.59363,0.54265 1.59363,0.54265 l 27.64955,17.90837 25.6031,16.56539 c 0,0 1.37041,0.89775 2.30342,1.50038 0.1314,0.0849 0.32046,0.26167 0.361,0.44953 0.0503,0.2332 -0.0618,0.61741 -0.17808,0.69322 -3.23592,2.13864 -9.80858,6.44486 -9.80858,6.44486 l -9.75,6.40208 -0.004,-3.73192 c 0,0 0.13216,-2.09929 -0.0306,-3.12986 -0.18119,-1.14766 -0.51216,-2.29208 -1.04144,-3.3264 -0.85306,-1.66706 -1.91525,-3.31401 -3.36643,-4.4976 -1.52534,-1.24408 -3.50327,-1.81416 -5.34232,-2.5158 -1.65095,-0.62988 -3.36613,-1.0858 -5.08149,-1.50998 -1.4558,-0.35999 -2.93132,-0.64355 -4.41283,-0.87613 -1.72907,-0.27145 -3.47358,-0.43743 -5.21581,-0.60482 -4.73486,-0.45492 -9.47206,-1.06232 -14.22867,-1.08529 -4.52843,-0.0219 -9.07442,0.24847 -13.55544,0.90236 -1.93506,0.28237 -5.72097,1.29936 -5.72097,1.29936 0,0 -3.28116,0.83909 -4.88128,1.38775 -1.57446,0.53985 -3.12289,1.16335 -4.63032,1.86904 -1.51029,0.70704 -2.81257,1.34059 -4.40935,2.36339 -0.76975,0.49306 -1.12393,0.85522 -1.54716,1.40995 -0.55075,0.72185 -0.92832,1.57281 -1.23781,2.4264 -0.57201,1.5776 -1.11801,4.90859 -1.11801,4.90859 l -0.27832,4.46664 z M 8.2045697,118.25 c 0,0 0.2676118,-48.555329 0.2049891,-57.505166 -0.033006,-4.717095 1.6894842,-8.285646 3.1117742,-12.252017 0.98416,-2.744548 2.275539,-5.384313 3.724801,-7.914284 1.262773,-2.204418 2.785199,-4.253518 4.306714,-6.287983 1.421679,-1.90097 2.900135,-3.765607 4.498567,-5.520564 1.664225,-1.827192 3.428754,-3.568741 5.286512,-5.198774 1.80312,-1.582092 3.734115,-3.01511 5.670222,-4.431355 1.691799,-1.237536 3.432515,-2.408376 5.190933,-3.549275 2.216001,-1.43779 4.396578,-2.952357 6.750377,-4.151329 2.777354,-1.414722 5.662108,-2.6599595 8.645433,-3.5626791 C 57.841299,7.1968373 62.5,6.5 62.5,6.5 L 120.25,6.2045697 178,5.9091395 V 90.95457 176 H 92.95457 7.9091395 Z m 121.2526503,38.25 6.26458,-5.5 2.3891,-0.0153 c 0,0 1.60361,0.11599 2.3891,-0.0153 0.5592,-0.0935 1.1657,-0.19307 1.61191,-0.54283 0.28799,-0.22573 0.4052,-0.60995 0.58868,-0.92654 0.41258,-0.71187 1.14971,-2.18426 1.14971,-2.18426 L 145,145.13151 V 104.53365 63.935793 c 0,0 -0.19195,-2.068987 -0.55891,-3.027275 -0.50927,-1.329936 -2.22888,-3.644845 -2.22888,-3.644845 0,0 -1.76478,-1.969145 -2.81346,-2.760749 C 138.20539,53.602103 135.5,52.284793 135.5,52.284793 L 106.0586,40.057556 76.617193,27.830318 c 0,0 -2.677518,-0.280329 -3.99784,-0.09689 -1.506825,0.209349 -4.359606,1.350168 -4.359606,1.350168 0,0 -3.289892,1.319212 -4.784929,2.253627 -1.669693,1.043576 -4.604047,3.700685 -4.604047,3.700685 0,0 -2.211398,2.510335 -2.880718,4.015562 -0.681968,1.533673 -1.071894,4.919975 -1.071894,4.919975 L 55.209079,86.236721 55.5,128.5 l 2.009095,3.4196 2.009096,3.4196 29.990904,13.2965 29.990905,13.2965 1.84632,0.0339 1.84631,0.0339 z m -8.37622,3.0976 -1.16388,-1.40239 3.04144,-2.1657 3.04144,-2.1657 v 2.3681 c 0,0 0.19158,1.68575 -0.1279,2.43204 C 125.66718,159.14262 124.8,159.8 124.8,159.8 l -1.2,1.2 h -0.67756 -0.67755 z m 4.91745,-44.3476 -0.002,-37.75 c 0,0 0.0847,-2.417511 -0.39182,-3.48493 -0.63426,-1.420703 -3.10507,-3.48493 -3.10507,-3.48493 l -4,-2.24862 -4,-2.248619 -0.64301,-0.01645 L 113.21398,66 c 0,0 -0.85442,0.725364 -1.11458,1.207353 C 111.72528,67.90046 111.52751,69.5 111.52751,69.5 L 111.01373,86.380326 110.5,103.26065 106.02637,96.657491 101.55273,90.054329 98.971646,92.527165 96.390562,95 H 95.695281 95 V 78.2 61.4 l 1.183333,-1.183333 1.183334,-1.183334 -0.433334,-0.3371 L 96.5,58.359132 78.800346,50.589434 61.100691,42.819735 60.050346,43.468885 59,44.118034 V 46.559017 49 H 57.5 56 v -1.777316 c 0,0 -0.01053,-2.064746 0.271324,-3.043491 0.356179,-1.236841 0.986656,-2.40686 1.755146,-3.439363 0.782133,-1.050833 1.802785,-1.9163 2.840442,-2.715832 1.060758,-0.817332 2.275961,-1.411932 3.42483,-2.099929 0.98476,-0.589721 1.956331,-1.20462 2.972625,-1.738165 1.430257,-0.750872 2.823714,-1.655766 4.38914,-2.054371 1.303362,-0.331875 2.728909,-0.795005 4.027375,-0.245547 10.196365,4.314683 30.227148,12.807007 30.227148,12.807007 0,0 19.27336,8.013827 30.31759,12.807007 1.09086,0.473431 2.13442,1.583772 2.90594,2.641188 0.64837,0.888626 1.34566,1.903169 1.36844,3.002951 0.29011,14.008575 0.2828,40.535951 0.2828,40.535951 l 0.28279,40.53595 -1.15524,1.39198 L 138.75511,147 h -2.24005 -2.24005 l -3.77501,3 -3.77501,3 H 126.3625 126 l -0.002,-37.75 z"
         id="path631"
         sodipodi:nodetypes="cccccsaaaaaaaaasccccccccccccacaacccacccaaaaccasacacaccccacaasccccsscccccccccccccccccccccacccsccaaaaaaaaascsaaaaaaccaaaaacaaassaaacsaaccacsasccacccsaccccaaaaaaaaacaasaaccccsaaaaaaaaacccccccccccaaaccccacacccacacacccccccccccccccacccccccacccccaccccccccccccccccccccccccacaaaascsascccccccccccc" />
    </g>
  </g>
</svg>
